G75*
G70*
%OFA0B0*%
%FSLAX24Y24*%
%IPPOS*%
%LPD*%
%AMOC8*
5,1,8,0,0,1.08239X$1,22.5*
%
%ADD10R,0.0800X0.0260*%
%ADD11R,0.0550X0.0137*%
%ADD12R,0.0472X0.0315*%
%ADD13R,0.0984X0.0394*%
%ADD14R,0.2362X0.0984*%
%ADD15R,0.0315X0.0472*%
%ADD16R,0.0472X0.0787*%
%ADD17R,0.0787X0.0472*%
%ADD18R,0.0472X0.0984*%
%ADD19R,0.0787X0.0984*%
%ADD20R,0.0984X0.0787*%
%ADD21R,0.0433X0.0394*%
%ADD22R,0.0571X0.0469*%
%ADD23R,0.0571X0.0394*%
%ADD24R,0.0500X0.0579*%
D10*
X012530Y011509D03*
X012530Y012009D03*
X012530Y012509D03*
X012530Y013009D03*
X012530Y013509D03*
X012530Y014009D03*
X012530Y014509D03*
X012530Y015009D03*
X015140Y015009D03*
X015140Y014509D03*
X015140Y014009D03*
X015140Y013509D03*
X015140Y013009D03*
X015140Y012509D03*
X015140Y012009D03*
X015140Y011509D03*
D11*
X017142Y011619D03*
X017142Y011363D03*
X017142Y011107D03*
X017142Y010851D03*
X017142Y011875D03*
X017142Y012131D03*
X017142Y012387D03*
X017142Y012643D03*
X017142Y012899D03*
X017142Y013155D03*
X017142Y013410D03*
X017142Y013666D03*
X019228Y013666D03*
X019228Y013410D03*
X019228Y013155D03*
X019228Y012899D03*
X019228Y012643D03*
X019228Y012387D03*
X019228Y012131D03*
X019228Y011875D03*
X019228Y011619D03*
X019228Y011363D03*
X019228Y011107D03*
X019228Y010851D03*
D12*
X016335Y011255D03*
X016335Y011963D03*
X019285Y014205D03*
X019285Y014913D03*
X019735Y010363D03*
X019735Y009655D03*
X011035Y026905D03*
X010335Y026905D03*
X010335Y027613D03*
X011035Y027613D03*
D13*
X021935Y012609D03*
X021935Y011609D03*
D14*
X023935Y012109D03*
D15*
X021039Y012659D03*
X020331Y012659D03*
X019981Y013459D03*
X020689Y013459D03*
X021039Y011359D03*
X020331Y011359D03*
X026481Y021759D03*
X027189Y021759D03*
X022189Y022759D03*
X021481Y022759D03*
X021481Y024759D03*
X022189Y024759D03*
D16*
X021265Y014409D03*
X020005Y014409D03*
D17*
X022185Y014889D03*
X022185Y013629D03*
D18*
X018835Y009759D03*
X017536Y009759D03*
X028745Y007751D03*
D19*
X027642Y007751D03*
X028351Y010467D03*
X024729Y010467D03*
D20*
X023134Y008814D03*
D21*
X022170Y021759D03*
X021500Y021759D03*
X021500Y025759D03*
X022170Y025759D03*
X022500Y026509D03*
X023170Y026509D03*
D22*
X022900Y021096D03*
D23*
X022900Y020383D03*
X023770Y020383D03*
X023770Y021135D03*
D24*
X018182Y015759D03*
X016489Y015759D03*
M02*
