%
M48
M72
T01C0.0200
T02C0.0394
T03C0.0400
T04C0.0440
T05C0.0787
T06C0.1300
%
T01
X13735Y11959
X13835Y12959
X13735Y13909
X14435Y14759
X13835Y15759
X11435Y14809
X10435Y14959
X10385Y13709
X11235Y13709
X10335Y12759
X11585Y12559
X15835Y13059
X17285Y14409
X18335Y15159
X18535Y13059
X18235Y11759
X18235Y10909
X20985Y12009
X21985Y10859
X22835Y10259
X25835Y15759
X23035Y19859
X24535Y20359
X24085Y22759
X22735Y22759
X23835Y24759
X19335Y20259
X10835Y20259
X10835Y21259
X10835Y22259
X10835Y23259
X10835Y24259
X10335Y17259
T02
X15335Y23259
X17335Y23259
X16335Y25259
T03
X16285Y28109
X15285Y28109
X17285Y28109
X22265Y28259
X23405Y28259
X25335Y25259
X25335Y24259
X25335Y23259
X25335Y22259
X28335Y22759
X28335Y23759
X28335Y24759
X28335Y25759
X28335Y26759
X28335Y27759
X28335Y20759
X28335Y19759
X28335Y18759
X28335Y17759
X28335Y16759
X28335Y15759
X12285Y17759
X12385Y18759
X12285Y19759
X12385Y20759
X12285Y21759
X12385Y22759
X12285Y23759
X12385Y24759
X12285Y25759
X12385Y26759
X9335Y26759
X9335Y27759
X9335Y25759
X9335Y24759
X9335Y23759
X9335Y22759
X9335Y21759
X9335Y20759
X9335Y19259
X9335Y18259
X9335Y17259
X9335Y16259
X9335Y15259
X9335Y14259
X9335Y13259
X9335Y12259
T04
X26335Y13759
T05
X25201Y9109
X27957Y9109
T06
X9335Y8759
X26335Y28759
M30
