G75*
G70*
%OFA0B0*%
%FSLAX24Y24*%
%IPPOS*%
%LPD*%
%AMOC8*
5,1,8,0,0,1.08239X$1,22.5*
%
%ADD10C,0.0050*%
%ADD11C,0.0080*%
%ADD12C,0.0060*%
%ADD13C,0.0100*%
%ADD14C,0.0220*%
D10*
X026810Y012834D02*
X026810Y013014D01*
X026900Y013104D01*
X026990Y013014D01*
X026990Y012834D01*
X027105Y012834D02*
X027105Y013104D01*
X027285Y012834D01*
X027285Y013104D01*
X027399Y013104D02*
X027580Y013104D01*
X027489Y013104D02*
X027489Y012834D01*
X026990Y012969D02*
X026810Y012969D01*
X024630Y022134D02*
X024630Y022404D01*
X024449Y022404D02*
X024449Y022134D01*
X024630Y022134D02*
X024449Y022404D01*
X024335Y022404D02*
X024155Y022404D01*
X024245Y022404D02*
X024245Y022134D01*
X024040Y022179D02*
X023995Y022134D01*
X023860Y022134D01*
X023860Y022404D01*
X023995Y022404D01*
X024040Y022359D01*
X024040Y022314D01*
X023995Y022269D01*
X023860Y022269D01*
X023995Y022269D02*
X024040Y022224D01*
X024040Y022179D01*
X023995Y023084D02*
X024040Y023129D01*
X024040Y023219D01*
X023950Y023219D01*
X023860Y023309D02*
X023860Y023129D01*
X023905Y023084D01*
X023995Y023084D01*
X024155Y023084D02*
X024155Y023354D01*
X024335Y023084D01*
X024335Y023354D01*
X024449Y023354D02*
X024584Y023354D01*
X024630Y023309D01*
X024630Y023129D01*
X024584Y023084D01*
X024449Y023084D01*
X024449Y023354D01*
X024040Y023309D02*
X023995Y023354D01*
X023905Y023354D01*
X023860Y023309D01*
X023894Y024134D02*
X023984Y024134D01*
X024030Y024179D01*
X023894Y024134D02*
X023849Y024179D01*
X023849Y024359D01*
X023894Y024404D01*
X023984Y024404D01*
X024030Y024359D01*
X024144Y024089D02*
X024324Y024089D01*
X024439Y024134D02*
X024439Y024314D01*
X024529Y024404D01*
X024619Y024314D01*
X024619Y024134D01*
X024619Y024269D02*
X024439Y024269D01*
X023735Y024134D02*
X023735Y024404D01*
X023555Y024404D02*
X023555Y024134D01*
X023440Y024134D02*
X023260Y024134D01*
X023260Y024404D01*
X023440Y024404D01*
X023555Y024404D02*
X023735Y024134D01*
X023350Y024269D02*
X023260Y024269D01*
X024144Y025089D02*
X024324Y025089D01*
X024439Y025134D02*
X024574Y025134D01*
X024619Y025179D01*
X024619Y025224D01*
X024574Y025269D01*
X024439Y025269D01*
X024574Y025269D02*
X024619Y025314D01*
X024619Y025359D01*
X024574Y025404D01*
X024439Y025404D01*
X024439Y025134D01*
X024030Y025179D02*
X023984Y025134D01*
X023894Y025134D01*
X023849Y025179D01*
X023849Y025359D01*
X023894Y025404D01*
X023984Y025404D01*
X024030Y025359D01*
X023735Y025404D02*
X023735Y025134D01*
X023555Y025404D01*
X023555Y025134D01*
X023440Y025134D02*
X023260Y025134D01*
X023260Y025404D01*
X023440Y025404D01*
X023350Y025269D02*
X023260Y025269D01*
X026040Y024737D02*
X026085Y024782D01*
X026175Y024782D01*
X026220Y024737D01*
X026220Y024602D01*
X026220Y024692D02*
X026310Y024782D01*
X026310Y024602D02*
X026040Y024602D01*
X026040Y024737D01*
X026040Y024487D02*
X026040Y024307D01*
X026310Y024307D01*
X026310Y024487D01*
X026175Y024397D02*
X026175Y024307D01*
X026085Y024193D02*
X026040Y024148D01*
X026040Y024012D01*
X026310Y024012D01*
X026310Y024148D01*
X026265Y024193D01*
X026085Y024193D01*
X026085Y023898D02*
X026040Y023853D01*
X026040Y023763D01*
X026085Y023718D01*
X026265Y023718D01*
X026310Y023763D01*
X026310Y023853D01*
X026265Y023898D01*
X026085Y023898D01*
X026085Y023603D02*
X026040Y023558D01*
X026040Y023468D01*
X026085Y023423D01*
X026265Y023423D01*
X026310Y023468D01*
X026310Y023558D01*
X026265Y023603D01*
X026310Y023309D02*
X026040Y023309D01*
X026040Y023129D02*
X026310Y023309D01*
X026310Y023129D02*
X026040Y023129D01*
X026040Y023014D02*
X026040Y022834D01*
X026310Y022834D01*
X026310Y023014D01*
X026175Y022924D02*
X026175Y022834D01*
X023615Y027234D02*
X023615Y027504D01*
X023435Y027504D02*
X023615Y027234D01*
X023435Y027234D02*
X023435Y027504D01*
X023329Y027504D02*
X023239Y027504D01*
X023284Y027504D02*
X023284Y027234D01*
X023239Y027234D02*
X023329Y027234D01*
X022830Y027234D02*
X022739Y027324D01*
X022784Y027324D02*
X022649Y027324D01*
X022649Y027234D02*
X022649Y027504D01*
X022784Y027504D01*
X022830Y027459D01*
X022830Y027369D01*
X022784Y027324D01*
X022535Y027234D02*
X022535Y027504D01*
X022355Y027504D02*
X022355Y027234D01*
X022445Y027324D01*
X022535Y027234D01*
X022240Y027369D02*
X022195Y027324D01*
X022060Y027324D01*
X022060Y027234D02*
X022060Y027504D01*
X022195Y027504D01*
X022240Y027459D01*
X022240Y027369D01*
X022206Y028914D02*
X022116Y028914D01*
X022071Y028959D01*
X022071Y029049D02*
X022161Y029094D01*
X022206Y029094D01*
X022251Y029049D01*
X022251Y028959D01*
X022206Y028914D01*
X022365Y029004D02*
X022365Y029184D01*
X022251Y029184D02*
X022071Y029184D01*
X022071Y029049D01*
X022365Y029004D02*
X022456Y028914D01*
X022546Y029004D01*
X022546Y029184D01*
X022976Y029139D02*
X022976Y028959D01*
X023021Y028914D01*
X023111Y028914D01*
X023156Y028959D01*
X023156Y029049D01*
X023066Y029049D01*
X022976Y029139D02*
X023021Y029184D01*
X023111Y029184D01*
X023156Y029139D01*
X023271Y029184D02*
X023451Y028914D01*
X023451Y029184D01*
X023565Y029184D02*
X023701Y029184D01*
X023746Y029139D01*
X023746Y028959D01*
X023701Y028914D01*
X023565Y028914D01*
X023565Y029184D01*
X023271Y029184D02*
X023271Y028914D01*
X017680Y028829D02*
X017680Y029009D01*
X017634Y029054D01*
X017499Y029054D01*
X017499Y028784D01*
X017634Y028784D01*
X017680Y028829D01*
X017385Y028784D02*
X017385Y029054D01*
X017205Y029054D02*
X017385Y028784D01*
X017205Y028784D02*
X017205Y029054D01*
X017090Y029009D02*
X017045Y029054D01*
X016955Y029054D01*
X016910Y029009D01*
X016910Y028829D01*
X016955Y028784D01*
X017045Y028784D01*
X017090Y028829D01*
X017090Y028919D01*
X017000Y028919D01*
X016485Y029054D02*
X016305Y028784D01*
X016485Y028784D02*
X016305Y029054D01*
X016190Y029054D02*
X016010Y029054D01*
X016100Y029054D02*
X016100Y028784D01*
X015535Y028784D02*
X015355Y029054D01*
X015240Y029009D02*
X015195Y029054D01*
X015060Y029054D01*
X015060Y028784D01*
X015060Y028874D02*
X015195Y028874D01*
X015240Y028919D01*
X015240Y029009D01*
X015150Y028874D02*
X015240Y028784D01*
X015355Y028784D02*
X015535Y029054D01*
X015545Y027354D02*
X015410Y027354D01*
X015410Y027084D01*
X015410Y027174D02*
X015545Y027174D01*
X015590Y027219D01*
X015590Y027309D01*
X015545Y027354D01*
X015705Y027309D02*
X015705Y027129D01*
X015750Y027084D01*
X015840Y027084D01*
X015885Y027129D01*
X015885Y027309D01*
X015840Y027354D01*
X015750Y027354D01*
X015705Y027309D01*
X015500Y027174D02*
X015590Y027084D01*
X015999Y027129D02*
X015999Y027354D01*
X016180Y027354D02*
X016180Y027129D01*
X016134Y027084D01*
X016044Y027084D01*
X015999Y027129D01*
X016294Y027354D02*
X016474Y027354D01*
X016384Y027354D02*
X016384Y027084D01*
X016589Y027084D02*
X016769Y027084D01*
X016883Y027084D02*
X016883Y027354D01*
X017018Y027354D01*
X017063Y027309D01*
X017063Y027219D01*
X017018Y027174D01*
X016883Y027174D01*
X016973Y027174D02*
X017063Y027084D01*
X016769Y027354D02*
X016589Y027354D01*
X016589Y027084D01*
X016589Y027219D02*
X016679Y027219D01*
X014369Y026154D02*
X014189Y026154D01*
X014279Y026154D02*
X014279Y025884D01*
X014074Y025929D02*
X014029Y025884D01*
X013939Y025884D01*
X013894Y025929D01*
X013939Y026019D02*
X014029Y026019D01*
X014074Y025974D01*
X014074Y025929D01*
X013939Y026019D02*
X013894Y026064D01*
X013894Y026109D01*
X013939Y026154D01*
X014029Y026154D01*
X014074Y026109D01*
X013780Y026109D02*
X013780Y026019D01*
X013734Y025974D01*
X013599Y025974D01*
X013599Y025884D02*
X013599Y026154D01*
X013734Y026154D01*
X013780Y026109D01*
X013689Y025974D02*
X013780Y025884D01*
X013395Y025884D02*
X013395Y026154D01*
X013305Y026154D02*
X013485Y026154D01*
X013190Y026109D02*
X013145Y026154D01*
X013055Y026154D01*
X013010Y026109D01*
X013010Y025929D01*
X013055Y025884D01*
X013145Y025884D01*
X013190Y025929D01*
X013145Y025354D02*
X013190Y025309D01*
X013190Y025219D01*
X013145Y025174D01*
X013010Y025174D01*
X013010Y025084D02*
X013010Y025354D01*
X013145Y025354D01*
X013305Y025309D02*
X013305Y025264D01*
X013350Y025219D01*
X013440Y025219D01*
X013485Y025174D01*
X013485Y025129D01*
X013440Y025084D01*
X013350Y025084D01*
X013305Y025129D01*
X013190Y025084D02*
X013100Y025174D01*
X013305Y025309D02*
X013350Y025354D01*
X013440Y025354D01*
X013485Y025309D01*
X013485Y024554D02*
X013485Y024284D01*
X013305Y024554D01*
X013305Y024284D01*
X013190Y024284D02*
X013010Y024284D01*
X013010Y024554D01*
X013190Y024554D01*
X013100Y024419D02*
X013010Y024419D01*
X013010Y023754D02*
X013145Y023754D01*
X013190Y023709D01*
X013190Y023529D01*
X013145Y023484D01*
X013010Y023484D01*
X013010Y023754D01*
X013305Y023754D02*
X013440Y023754D01*
X013485Y023709D01*
X013485Y023664D01*
X013440Y023619D01*
X013305Y023619D01*
X013440Y023619D02*
X013485Y023574D01*
X013485Y023529D01*
X013440Y023484D01*
X013305Y023484D01*
X013305Y023754D01*
X013599Y023619D02*
X013780Y023619D01*
X013734Y023754D02*
X013599Y023619D01*
X013734Y023484D02*
X013734Y023754D01*
X013780Y023004D02*
X013599Y023004D01*
X013599Y022869D01*
X013689Y022914D01*
X013734Y022914D01*
X013780Y022869D01*
X013780Y022779D01*
X013734Y022734D01*
X013644Y022734D01*
X013599Y022779D01*
X013485Y022779D02*
X013440Y022734D01*
X013305Y022734D01*
X013305Y023004D01*
X013440Y023004D01*
X013485Y022959D01*
X013485Y022914D01*
X013440Y022869D01*
X013305Y022869D01*
X013440Y022869D02*
X013485Y022824D01*
X013485Y022779D01*
X013190Y022779D02*
X013145Y022734D01*
X013010Y022734D01*
X013010Y023004D01*
X013145Y023004D01*
X013190Y022959D01*
X013190Y022779D01*
X013145Y022154D02*
X013010Y022154D01*
X013010Y021884D01*
X013145Y021884D01*
X013190Y021929D01*
X013190Y022109D01*
X013145Y022154D01*
X013305Y022154D02*
X013440Y022154D01*
X013485Y022109D01*
X013485Y022064D01*
X013440Y022019D01*
X013305Y022019D01*
X013440Y022019D02*
X013485Y021974D01*
X013485Y021929D01*
X013440Y021884D01*
X013305Y021884D01*
X013305Y022154D01*
X013599Y022019D02*
X013734Y022019D01*
X013780Y021974D01*
X013780Y021929D01*
X013734Y021884D01*
X013644Y021884D01*
X013599Y021929D01*
X013599Y022019D01*
X013689Y022109D01*
X013780Y022154D01*
X013780Y021404D02*
X013599Y021404D01*
X013485Y021359D02*
X013485Y021314D01*
X013440Y021269D01*
X013305Y021269D01*
X013440Y021269D02*
X013485Y021224D01*
X013485Y021179D01*
X013440Y021134D01*
X013305Y021134D01*
X013305Y021404D01*
X013440Y021404D01*
X013485Y021359D01*
X013599Y021179D02*
X013599Y021134D01*
X013599Y021179D02*
X013780Y021359D01*
X013780Y021404D01*
X013190Y021359D02*
X013190Y021179D01*
X013145Y021134D01*
X013010Y021134D01*
X013010Y021404D01*
X013145Y021404D01*
X013190Y021359D01*
X013190Y020604D02*
X013010Y020604D01*
X013010Y020469D01*
X013100Y020514D01*
X013145Y020514D01*
X013190Y020469D01*
X013190Y020379D01*
X013145Y020334D01*
X013055Y020334D01*
X013010Y020379D01*
X013305Y020424D02*
X013395Y020334D01*
X013485Y020424D01*
X013485Y020604D01*
X013305Y020604D02*
X013305Y020424D01*
X013305Y019854D02*
X013485Y019584D01*
X013485Y019854D01*
X013599Y019854D02*
X013734Y019854D01*
X013780Y019809D01*
X013780Y019629D01*
X013734Y019584D01*
X013599Y019584D01*
X013599Y019854D01*
X013305Y019854D02*
X013305Y019584D01*
X013190Y019629D02*
X013190Y019719D01*
X013100Y019719D01*
X013010Y019809D02*
X013010Y019629D01*
X013055Y019584D01*
X013145Y019584D01*
X013190Y019629D01*
X013190Y019809D02*
X013145Y019854D01*
X013055Y019854D01*
X013010Y019809D01*
X015060Y022434D02*
X015240Y022434D01*
X015355Y022479D02*
X015400Y022434D01*
X015490Y022434D01*
X015535Y022479D01*
X015649Y022434D02*
X015649Y022704D01*
X015784Y022704D01*
X015830Y022659D01*
X015830Y022479D01*
X015784Y022434D01*
X015649Y022434D01*
X015535Y022659D02*
X015490Y022704D01*
X015400Y022704D01*
X015355Y022659D01*
X015355Y022479D01*
X015060Y022434D02*
X015060Y022704D01*
X015335Y023259D02*
X017335Y023259D01*
X017335Y025259D01*
X015335Y025259D01*
X015335Y023259D01*
X016239Y022659D02*
X016239Y022479D01*
X016284Y022434D01*
X016374Y022434D01*
X016419Y022479D01*
X016419Y022659D02*
X016374Y022704D01*
X016284Y022704D01*
X016239Y022659D01*
X016533Y022704D02*
X016713Y022704D01*
X016623Y022704D02*
X016623Y022434D01*
X016828Y022434D02*
X016828Y022704D01*
X016963Y022704D01*
X017008Y022659D01*
X017008Y022569D01*
X016963Y022524D01*
X016828Y022524D01*
X016918Y022524D02*
X017008Y022434D01*
X017123Y022479D02*
X017168Y022434D01*
X017258Y022434D01*
X017303Y022479D01*
X017303Y022524D01*
X017258Y022569D01*
X017168Y022569D01*
X017123Y022614D01*
X017123Y022659D01*
X017168Y022704D01*
X017258Y022704D01*
X017303Y022659D01*
X017417Y022704D02*
X017597Y022704D01*
X017507Y022704D02*
X017507Y022434D01*
X016335Y023759D02*
X016335Y024259D01*
X015544Y024259D02*
X015546Y024315D01*
X015552Y024370D01*
X015562Y024425D01*
X015575Y024479D01*
X015593Y024532D01*
X015614Y024584D01*
X015639Y024634D01*
X015667Y024682D01*
X015698Y024728D01*
X015733Y024772D01*
X015771Y024813D01*
X015811Y024852D01*
X015854Y024887D01*
X015900Y024920D01*
X015948Y024949D01*
X015997Y024974D01*
X016048Y024996D01*
X016101Y025015D01*
X016155Y025029D01*
X016210Y025040D01*
X016265Y025047D01*
X016321Y025050D01*
X016377Y025049D01*
X016432Y025044D01*
X016488Y025035D01*
X016542Y025022D01*
X016595Y025006D01*
X016647Y024986D01*
X016698Y024962D01*
X016747Y024935D01*
X016793Y024904D01*
X016837Y024870D01*
X016879Y024833D01*
X016918Y024793D01*
X016955Y024751D01*
X016988Y024706D01*
X017018Y024659D01*
X017044Y024609D01*
X017067Y024558D01*
X017086Y024506D01*
X017102Y024452D01*
X017114Y024398D01*
X017122Y024343D01*
X017126Y024287D01*
X017126Y024231D01*
X017122Y024175D01*
X017114Y024120D01*
X017102Y024066D01*
X017086Y024012D01*
X017067Y023960D01*
X017044Y023909D01*
X017018Y023859D01*
X016988Y023812D01*
X016955Y023767D01*
X016918Y023725D01*
X016879Y023685D01*
X016837Y023648D01*
X016793Y023614D01*
X016747Y023583D01*
X016698Y023556D01*
X016647Y023532D01*
X016595Y023512D01*
X016542Y023496D01*
X016488Y023483D01*
X016432Y023474D01*
X016377Y023469D01*
X016321Y023468D01*
X016265Y023471D01*
X016210Y023478D01*
X016155Y023489D01*
X016101Y023503D01*
X016048Y023522D01*
X015997Y023544D01*
X015948Y023569D01*
X015900Y023598D01*
X015854Y023631D01*
X015811Y023666D01*
X015771Y023705D01*
X015733Y023746D01*
X015698Y023790D01*
X015667Y023836D01*
X015639Y023884D01*
X015614Y023934D01*
X015593Y023986D01*
X015575Y024039D01*
X015562Y024093D01*
X015552Y024148D01*
X015546Y024203D01*
X015544Y024259D01*
X015835Y024259D02*
X016335Y024259D01*
X016835Y024259D01*
X016335Y024259D02*
X016335Y024759D01*
X013780Y026729D02*
X013734Y026684D01*
X013599Y026684D01*
X013599Y026954D01*
X013734Y026954D01*
X013780Y026909D01*
X013780Y026729D01*
X013485Y026684D02*
X013485Y026954D01*
X013305Y026954D02*
X013305Y026684D01*
X013190Y026729D02*
X013190Y026819D01*
X013100Y026819D01*
X013010Y026909D02*
X013010Y026729D01*
X013055Y026684D01*
X013145Y026684D01*
X013190Y026729D01*
X013190Y026909D02*
X013145Y026954D01*
X013055Y026954D01*
X013010Y026909D01*
X013305Y026954D02*
X013485Y026684D01*
X012701Y027464D02*
X012746Y027509D01*
X012746Y027689D01*
X012701Y027734D01*
X012565Y027734D01*
X012565Y027464D01*
X012701Y027464D01*
X012451Y027509D02*
X012406Y027464D01*
X012316Y027464D01*
X012271Y027509D01*
X012271Y027689D01*
X012316Y027734D01*
X012406Y027734D01*
X012451Y027689D01*
X012156Y027464D02*
X011976Y027464D01*
X011976Y027734D01*
D11*
X010005Y007329D02*
X009865Y007049D01*
X009725Y007329D01*
X010185Y007399D02*
X010256Y007469D01*
X010396Y007469D01*
X010466Y007399D01*
X010466Y007329D01*
X010185Y007049D01*
X010466Y007049D01*
X010646Y007049D02*
X010716Y007049D01*
X010716Y007119D01*
X010646Y007119D01*
X010646Y007049D01*
X010876Y007049D02*
X011156Y007049D01*
X011016Y007049D02*
X011016Y007469D01*
X010876Y007329D01*
X011725Y007469D02*
X012005Y007469D01*
X012005Y007399D01*
X011725Y007119D01*
X011725Y007049D01*
X012185Y007049D02*
X012256Y007049D01*
X012256Y007119D01*
X012185Y007119D01*
X012185Y007049D01*
X012416Y007049D02*
X012696Y007049D01*
X012556Y007049D02*
X012556Y007469D01*
X012416Y007329D01*
X012876Y007329D02*
X012876Y007399D01*
X012946Y007469D01*
X013086Y007469D01*
X013156Y007399D01*
X013156Y007329D01*
X013086Y007259D01*
X012946Y007259D01*
X012876Y007329D01*
X012946Y007259D02*
X012876Y007189D01*
X012876Y007119D01*
X012946Y007049D01*
X013086Y007049D01*
X013156Y007119D01*
X013156Y007189D01*
X013086Y007259D01*
X013336Y007119D02*
X013406Y007119D01*
X013406Y007049D01*
X013336Y007049D01*
X013336Y007119D01*
X013566Y007049D02*
X013847Y007329D01*
X013847Y007399D01*
X013777Y007469D01*
X013637Y007469D01*
X013566Y007399D01*
X013566Y007049D02*
X013847Y007049D01*
X014027Y007119D02*
X014307Y007399D01*
X014307Y007119D01*
X014237Y007049D01*
X014097Y007049D01*
X014027Y007119D01*
X014027Y007399D01*
X014097Y007469D01*
X014237Y007469D01*
X014307Y007399D01*
X014487Y007329D02*
X014627Y007469D01*
X014627Y007049D01*
X014487Y007049D02*
X014767Y007049D01*
X014948Y007049D02*
X015228Y007049D01*
X015088Y007049D02*
X015088Y007469D01*
X014948Y007329D01*
X017161Y009267D02*
X017319Y009149D01*
X017791Y009149D01*
X017319Y009149D01*
X017161Y009267D02*
X017161Y010231D01*
X017319Y010369D01*
X017791Y010369D01*
X017945Y010265D02*
X017945Y009243D01*
X018539Y009149D02*
X019209Y009149D01*
X019209Y010389D01*
X018539Y010389D01*
X018854Y010586D02*
X017516Y010586D01*
X017516Y013932D01*
X018854Y013932D01*
X018854Y010586D01*
X018561Y010780D02*
X018563Y010798D01*
X018569Y010816D01*
X018578Y010832D01*
X018590Y010845D01*
X018605Y010856D01*
X018622Y010864D01*
X018640Y010868D01*
X018658Y010868D01*
X018676Y010864D01*
X018693Y010856D01*
X018708Y010845D01*
X018720Y010832D01*
X018729Y010816D01*
X018735Y010798D01*
X018737Y010780D01*
X018735Y010762D01*
X018729Y010744D01*
X018720Y010728D01*
X018708Y010715D01*
X018693Y010704D01*
X018676Y010696D01*
X018658Y010692D01*
X018640Y010692D01*
X018622Y010696D01*
X018605Y010704D01*
X018590Y010715D01*
X018578Y010728D01*
X018569Y010744D01*
X018563Y010762D01*
X018561Y010780D01*
X021673Y013629D02*
X021673Y014889D01*
X021265Y014921D02*
X020005Y014921D01*
X020005Y013897D02*
X021265Y013897D01*
X022697Y013629D02*
X022697Y014889D01*
X026335Y014009D02*
X026335Y013509D01*
X026585Y013259D01*
X027085Y013259D01*
X026335Y014009D02*
X026585Y014259D01*
X027085Y014259D01*
X022754Y017799D02*
X022754Y018009D01*
X022684Y018079D01*
X022614Y018009D01*
X022614Y017799D01*
X022473Y017799D02*
X022473Y018079D01*
X022543Y018079D01*
X022614Y018009D01*
X022293Y018009D02*
X022293Y017869D01*
X022223Y017799D01*
X022083Y017799D01*
X022013Y017869D01*
X022013Y018009D01*
X022083Y018079D01*
X022223Y018079D01*
X022293Y018009D01*
X021833Y018079D02*
X021623Y018079D01*
X021553Y018009D01*
X021553Y017869D01*
X021623Y017799D01*
X021833Y017799D01*
X021393Y017799D02*
X021323Y017799D01*
X021323Y017869D01*
X021393Y017869D01*
X021393Y017799D01*
X021156Y017799D02*
X021086Y017869D01*
X021086Y018149D01*
X021016Y018079D02*
X021156Y018079D01*
X020849Y018079D02*
X020709Y018079D01*
X020779Y018149D02*
X020779Y017869D01*
X020849Y017799D01*
X020529Y017939D02*
X020529Y018009D01*
X020459Y018079D01*
X020318Y018079D01*
X020248Y018009D01*
X020248Y017869D01*
X020318Y017799D01*
X020459Y017799D01*
X020529Y017939D02*
X020248Y017939D01*
X020082Y017799D02*
X019942Y017799D01*
X020012Y017799D02*
X020012Y018219D01*
X019942Y018219D01*
X019705Y018219D02*
X019705Y017799D01*
X019635Y017799D02*
X019775Y017799D01*
X019455Y017869D02*
X019455Y018009D01*
X019384Y018079D01*
X019244Y018079D01*
X019174Y018009D01*
X019174Y017869D01*
X019244Y017799D01*
X019384Y017799D01*
X019455Y017869D01*
X019635Y018219D02*
X019705Y018219D01*
X018994Y018079D02*
X018784Y018079D01*
X018714Y018009D01*
X018714Y017869D01*
X018784Y017799D01*
X018994Y017799D01*
X018534Y017799D02*
X018324Y017799D01*
X018254Y017869D01*
X018254Y018079D01*
X018073Y018009D02*
X018073Y017799D01*
X017863Y017799D01*
X017793Y017869D01*
X017863Y017939D01*
X018073Y017939D01*
X018073Y018009D02*
X018003Y018079D01*
X017863Y018079D01*
X017626Y018079D02*
X017626Y017729D01*
X017556Y017659D01*
X017486Y017659D01*
X017326Y017799D02*
X017256Y017799D01*
X017256Y017869D01*
X017326Y017869D01*
X017326Y017799D01*
X017076Y017869D02*
X017076Y018079D01*
X017076Y017869D02*
X017006Y017799D01*
X016936Y017869D01*
X016866Y017799D01*
X016796Y017869D01*
X016796Y018079D01*
X016616Y018079D02*
X016616Y017869D01*
X016546Y017799D01*
X016476Y017869D01*
X016406Y017799D01*
X016335Y017869D01*
X016335Y018079D01*
X016155Y018079D02*
X016155Y017869D01*
X016085Y017799D01*
X016015Y017869D01*
X015945Y017799D01*
X015875Y017869D01*
X015875Y018079D01*
X015743Y018799D02*
X015603Y018799D01*
X015673Y018799D02*
X015673Y019219D01*
X015603Y019219D02*
X015743Y019219D01*
X015423Y019219D02*
X015142Y019219D01*
X015142Y018799D01*
X014976Y018799D02*
X014835Y018799D01*
X014906Y018799D02*
X014906Y019219D01*
X014976Y019219D02*
X014835Y019219D01*
X014655Y019219D02*
X014655Y018799D01*
X014515Y018939D01*
X014375Y018799D01*
X014375Y019219D01*
X015142Y019009D02*
X015282Y019009D01*
X016370Y019009D02*
X016650Y019009D01*
X016650Y019079D02*
X016650Y018799D01*
X016830Y018799D02*
X016830Y019219D01*
X016970Y019079D01*
X017111Y019219D01*
X017111Y018799D01*
X017291Y018799D02*
X017571Y019219D01*
X017751Y019219D02*
X018031Y019219D01*
X018211Y019219D02*
X018351Y019079D01*
X018492Y019219D01*
X018492Y018799D01*
X018211Y018799D02*
X018211Y019219D01*
X017891Y019009D02*
X017751Y019009D01*
X017751Y018799D02*
X017751Y019219D01*
X017626Y018289D02*
X017626Y018219D01*
X018394Y017659D02*
X018464Y017659D01*
X018534Y017729D01*
X018534Y018079D01*
X019132Y018799D02*
X019132Y019219D01*
X019342Y019219D01*
X019412Y019149D01*
X019412Y019009D01*
X019342Y018939D01*
X019132Y018939D01*
X019272Y018939D02*
X019412Y018799D01*
X019592Y018869D02*
X019662Y018799D01*
X019873Y018799D01*
X019873Y019009D01*
X019803Y019079D01*
X019662Y019079D01*
X019662Y018939D02*
X019873Y018939D01*
X020053Y019009D02*
X020123Y019079D01*
X020333Y019079D01*
X020333Y019219D02*
X020333Y018799D01*
X020123Y018799D01*
X020053Y018869D01*
X020053Y019009D01*
X019662Y018939D02*
X019592Y018869D01*
X020513Y018799D02*
X020653Y018799D01*
X020583Y018799D02*
X020583Y019079D01*
X020513Y019079D01*
X020583Y019219D02*
X020583Y019289D01*
X020820Y019009D02*
X020820Y018869D01*
X020890Y018799D01*
X021030Y018799D01*
X021100Y018869D01*
X021100Y019009D01*
X021030Y019079D01*
X020890Y019079D01*
X020820Y019009D01*
X021741Y019079D02*
X021811Y019009D01*
X021951Y019009D01*
X022021Y018939D01*
X022021Y018869D01*
X021951Y018799D01*
X021811Y018799D01*
X021741Y018869D01*
X021741Y019079D02*
X021741Y019149D01*
X021811Y019219D01*
X021951Y019219D01*
X022021Y019149D01*
X022201Y019219D02*
X022201Y018799D01*
X022201Y019009D02*
X022271Y019079D01*
X022411Y019079D01*
X022481Y019009D01*
X022481Y018799D01*
X022661Y018799D02*
X022802Y018799D01*
X022731Y018799D02*
X022731Y019079D01*
X022661Y019079D01*
X022731Y019219D02*
X022731Y019289D01*
X022968Y019009D02*
X023038Y019079D01*
X023179Y019079D01*
X023249Y019009D01*
X023249Y018939D01*
X022968Y018939D01*
X022968Y018869D02*
X022968Y019009D01*
X022968Y018869D02*
X023038Y018799D01*
X023179Y018799D01*
X023429Y018799D02*
X023569Y018799D01*
X023499Y018799D02*
X023499Y019219D01*
X023429Y019219D01*
X023736Y019009D02*
X023806Y019079D01*
X024016Y019079D01*
X024016Y019219D02*
X024016Y018799D01*
X023806Y018799D01*
X023736Y018869D01*
X023736Y019009D01*
X025085Y021759D02*
X025585Y021759D01*
X025835Y022009D01*
X025835Y022509D01*
X025585Y022759D01*
X025835Y023009D01*
X025835Y023509D01*
X025585Y023759D01*
X025835Y024009D01*
X025835Y024509D01*
X025585Y024759D01*
X025835Y025009D01*
X025835Y025509D01*
X025585Y025759D01*
X025085Y025759D01*
X024835Y025509D01*
X024835Y025009D01*
X025085Y024759D01*
X024835Y024509D01*
X024835Y024009D01*
X025085Y023759D01*
X024835Y023509D01*
X024835Y023009D01*
X025085Y022759D01*
X024835Y022509D01*
X024835Y022009D01*
X025085Y021759D01*
X023585Y027759D02*
X023085Y027759D01*
X022835Y028009D01*
X022585Y027759D01*
X022085Y027759D01*
X021835Y028009D01*
X021835Y028509D01*
X022085Y028759D01*
X022585Y028759D01*
X022835Y028509D01*
X023085Y028759D01*
X023585Y028759D01*
X023835Y028509D01*
X023835Y028009D01*
X023585Y027759D01*
X017785Y027859D02*
X017785Y028359D01*
X017535Y028609D01*
X017035Y028609D01*
X016785Y028359D01*
X016535Y028609D01*
X016035Y028609D01*
X015785Y028359D01*
X015535Y028609D01*
X015035Y028609D01*
X014785Y028359D01*
X014785Y027859D01*
X015035Y027609D01*
X015535Y027609D01*
X015785Y027859D01*
X016035Y027609D01*
X016535Y027609D01*
X016785Y027859D01*
X017035Y027609D01*
X017535Y027609D01*
X017785Y027859D01*
X012827Y027251D02*
X011843Y027251D01*
X011843Y019180D01*
X012827Y019180D01*
X012827Y027251D01*
X016510Y019219D02*
X016650Y019079D01*
X016510Y019219D02*
X016370Y019079D01*
X016370Y018799D01*
X014407Y015329D02*
X014075Y015329D01*
X014075Y015309D02*
X014073Y015279D01*
X014068Y015249D01*
X014059Y015220D01*
X014046Y015193D01*
X014031Y015167D01*
X014012Y015143D01*
X013991Y015122D01*
X013967Y015103D01*
X013941Y015088D01*
X013914Y015075D01*
X013885Y015066D01*
X013855Y015061D01*
X013825Y015059D01*
X013795Y015061D01*
X013765Y015066D01*
X013736Y015075D01*
X013709Y015088D01*
X013683Y015103D01*
X013659Y015122D01*
X013638Y015143D01*
X013619Y015167D01*
X013604Y015193D01*
X013591Y015220D01*
X013582Y015249D01*
X013577Y015279D01*
X013575Y015309D01*
X013575Y015329D02*
X013179Y015329D01*
X013179Y015330D02*
X013159Y015325D01*
X013140Y015317D01*
X013122Y015306D01*
X013106Y015293D01*
X013093Y015277D01*
X013082Y015260D01*
X013074Y015241D01*
X013069Y015221D01*
X013067Y015200D01*
X013068Y015179D01*
X013069Y015179D02*
X013069Y011300D01*
X013068Y011299D02*
X013073Y011279D01*
X013081Y011260D01*
X013092Y011242D01*
X013105Y011226D01*
X013121Y011213D01*
X013138Y011202D01*
X013157Y011194D01*
X013177Y011189D01*
X013198Y011187D01*
X013219Y011188D01*
X013219Y011189D02*
X014451Y011189D01*
X014474Y011191D01*
X014497Y011196D01*
X014519Y011205D01*
X014539Y011218D01*
X014557Y011233D01*
X014572Y011251D01*
X014585Y011271D01*
X014594Y011293D01*
X014599Y011316D01*
X014601Y011339D01*
X014601Y015179D01*
X014602Y015179D02*
X014597Y015203D01*
X014589Y015226D01*
X014578Y015247D01*
X014564Y015267D01*
X014547Y015285D01*
X014528Y015300D01*
X014507Y015313D01*
X014485Y015322D01*
X014461Y015328D01*
X014437Y015330D01*
X014412Y015329D01*
D12*
X019049Y014677D02*
X019049Y014441D01*
X019521Y014441D02*
X019521Y014677D01*
X020217Y013695D02*
X020453Y013695D01*
X020453Y013223D02*
X020217Y013223D01*
X020567Y012895D02*
X020803Y012895D01*
X020803Y012423D02*
X020567Y012423D01*
X020567Y011595D02*
X020803Y011595D01*
X020803Y011123D02*
X020567Y011123D01*
X019971Y010127D02*
X019971Y009891D01*
X019499Y009891D02*
X019499Y010127D01*
X016571Y011491D02*
X016571Y011727D01*
X016099Y011727D02*
X016099Y011491D01*
X026717Y021523D02*
X026953Y021523D01*
X026953Y021995D02*
X026717Y021995D01*
X021953Y022523D02*
X021717Y022523D01*
X021717Y022995D02*
X021953Y022995D01*
X021953Y024523D02*
X021717Y024523D01*
X021717Y024995D02*
X021953Y024995D01*
D13*
X023615Y010409D02*
X024155Y010409D01*
X023615Y010409D02*
X023615Y009359D01*
X023635Y008239D02*
X023635Y007759D01*
X027095Y007759D01*
X027765Y010389D02*
X025345Y010389D01*
D14*
X021835Y021747D02*
X021835Y021771D01*
X021835Y025747D02*
X021835Y025771D01*
X022835Y026747D02*
X022835Y026771D01*
M02*
