%
M48
M72
T01C0.0200
T02C0.0315
T03C0.0394
T04C0.0400
T05C0.0440
T06C0.0787
T07C0.1300
%
T01
X13735Y11959
X13835Y12959
X13735Y13909
X14435Y14759
X15835Y13059
X17785Y14409
X18385Y12809
X18235Y11759
X18235Y10909
X20985Y12009
X21135Y10359
X25835Y15759
X19335Y20259
X22735Y22759
X24085Y22759
X23835Y24759
X10835Y25059
X10835Y23259
X10835Y22359
X11435Y14809
X11235Y13709
X10385Y13709
X10335Y12759
X11585Y12559
T02
X12335Y19672
X12335Y20460
X12335Y21247
X12335Y22034
X12335Y22822
X12335Y23609
X12335Y24397
X12335Y25184
X12335Y25971
X12335Y26759
T03
X16335Y25259
X15335Y23259
X17335Y23259
T04
X17285Y28109
X16285Y28109
X15285Y28109
X9335Y27759
X9335Y26759
X9335Y25759
X9335Y24759
X9335Y23759
X9335Y22759
X9335Y21759
X9335Y20759
X9335Y19259
X9335Y18259
X9335Y17259
X9335Y16259
X9335Y15259
X9335Y14259
X9335Y13259
X9335Y12259
X25335Y22259
X25335Y23259
X25335Y24259
X25335Y25259
X28335Y25759
X28335Y26759
X28335Y27759
X28335Y24759
X28335Y23759
X28335Y22759
X28335Y20759
X28335Y19759
X28335Y18759
X28335Y17759
X28335Y16759
X28335Y15759
X23405Y28259
X22265Y28259
T05
X26835Y13759
T06
X27957Y9109
X25201Y9109
T07
X9335Y8759
X26335Y28759
M30
