G75*
G70*
%OFA0B0*%
%FSLAX24Y24*%
%IPPOS*%
%LPD*%
%AMOC8*
5,1,8,0,0,1.08239X$1,22.5*
%
%ADD10C,0.0740*%
%ADD11C,0.0740*%
%ADD12R,0.0472X0.0315*%
%ADD13R,0.0740X0.0740*%
%ADD14R,0.0555X0.0555*%
%ADD15C,0.0555*%
%ADD16C,0.0400*%
%ADD17C,0.0100*%
%ADD18C,0.0080*%
%ADD19C,0.0150*%
D10*
X009335Y012259D03*
X009335Y013259D03*
X009335Y014259D03*
X009335Y015259D03*
X009335Y016259D03*
X009335Y017259D03*
X009335Y018259D03*
X009335Y019259D03*
X009335Y020759D03*
X009335Y021759D03*
X009335Y022759D03*
X009335Y023759D03*
X009335Y024759D03*
X009335Y025759D03*
X009335Y026759D03*
X009335Y027759D03*
X015285Y028109D03*
X016285Y028109D03*
X017285Y028109D03*
X016335Y025259D03*
X015335Y023259D03*
X017335Y023259D03*
X022265Y028259D03*
X023405Y028259D03*
X028335Y027759D03*
X028335Y026759D03*
X028335Y025759D03*
X028335Y024759D03*
X028335Y023759D03*
X028335Y022759D03*
X028335Y020759D03*
X028335Y019759D03*
X028335Y018759D03*
X028335Y017759D03*
X028335Y016759D03*
X028335Y015759D03*
X025335Y022259D03*
X025335Y023259D03*
X025335Y024259D03*
D11*
X026835Y013759D02*
X027575Y013759D01*
D12*
X011235Y026905D03*
X010435Y026905D03*
X010435Y027613D03*
X011235Y027613D03*
D13*
X025335Y025259D03*
D14*
X012335Y026759D03*
D15*
X012335Y025971D03*
X012335Y025184D03*
X012335Y024397D03*
X012335Y023609D03*
X012335Y022822D03*
X012335Y022034D03*
X012335Y021247D03*
X012335Y020460D03*
X012335Y019672D03*
D16*
X010835Y022359D03*
X010835Y023259D03*
X010835Y025059D03*
X019335Y020259D03*
X022735Y022759D03*
X024085Y022759D03*
X023835Y024759D03*
X025835Y015759D03*
X020985Y012009D03*
X021135Y010359D03*
X018235Y010909D03*
X018235Y011759D03*
X018385Y012809D03*
X017785Y014409D03*
X015835Y013059D03*
X013835Y012959D03*
X013735Y013909D03*
X014435Y014759D03*
X011435Y014809D03*
X011235Y013709D03*
X010385Y013709D03*
X010335Y012759D03*
X011585Y012559D03*
X013735Y011959D03*
D17*
X008335Y007259D02*
X009335Y006259D01*
X028335Y006259D01*
X009335Y006259D01*
X009237Y006357D02*
X028434Y006357D01*
X028335Y006259D02*
X029335Y007259D01*
X029335Y028759D01*
X028335Y028759D01*
X027335Y029759D01*
X014335Y029759D01*
X013335Y028759D01*
X008835Y028759D01*
X008335Y028259D01*
X008335Y007259D01*
X008350Y007244D02*
X029321Y007244D01*
X029335Y007343D02*
X008335Y007343D01*
X008335Y007441D02*
X029335Y007441D01*
X029335Y007540D02*
X008335Y007540D01*
X008335Y007639D02*
X029335Y007639D01*
X029335Y007737D02*
X008335Y007737D01*
X008335Y007836D02*
X009226Y007836D01*
X009335Y007814D02*
X009335Y007814D01*
X008974Y007886D01*
X008973Y007886D01*
X008667Y008091D01*
X008667Y008091D01*
X008462Y008397D01*
X008462Y008397D01*
X008390Y008759D01*
X008390Y008759D01*
X008462Y009120D01*
X008462Y009121D01*
X008667Y009427D01*
X008667Y009427D01*
X008973Y009632D01*
X008974Y009632D01*
X009335Y009704D01*
X009335Y009704D01*
X009697Y009632D01*
X009697Y009632D01*
X010003Y009427D01*
X010003Y009427D01*
X010003Y009427D01*
X010208Y009121D01*
X010208Y009120D01*
X010280Y008759D01*
X010208Y008397D01*
X010208Y008397D01*
X010003Y008091D01*
X010003Y008091D01*
X010003Y008091D01*
X009697Y007886D01*
X009697Y007886D01*
X009335Y007814D01*
X009444Y007836D02*
X029335Y007836D01*
X029335Y007934D02*
X009769Y007934D01*
X009916Y008033D02*
X029335Y008033D01*
X029335Y008131D02*
X010030Y008131D01*
X010096Y008230D02*
X029335Y008230D01*
X029335Y008328D02*
X010162Y008328D01*
X010214Y008427D02*
X029335Y008427D01*
X029335Y008525D02*
X010234Y008525D01*
X010253Y008624D02*
X024899Y008624D01*
X024882Y008631D02*
X025089Y008545D01*
X025313Y008545D01*
X025521Y008631D01*
X025679Y008790D01*
X025765Y008997D01*
X025765Y009221D01*
X025679Y009428D01*
X025521Y009587D01*
X025313Y009673D01*
X025089Y009673D01*
X024882Y009587D01*
X024723Y009428D01*
X024638Y009221D01*
X024638Y008997D01*
X024723Y008790D01*
X024882Y008631D01*
X024790Y008722D02*
X010273Y008722D01*
X010268Y008821D02*
X024710Y008821D01*
X024670Y008920D02*
X010248Y008920D01*
X010229Y009018D02*
X024638Y009018D01*
X024638Y009117D02*
X010209Y009117D01*
X010145Y009215D02*
X024638Y009215D01*
X024676Y009314D02*
X010079Y009314D01*
X010013Y009412D02*
X024717Y009412D01*
X024806Y009511D02*
X009878Y009511D01*
X009731Y009609D02*
X024937Y009609D01*
X025466Y009609D02*
X027692Y009609D01*
X027638Y009587D02*
X027479Y009428D01*
X027393Y009221D01*
X027393Y008997D01*
X027479Y008790D01*
X027638Y008631D01*
X027845Y008545D01*
X028069Y008545D01*
X028276Y008631D01*
X028435Y008790D01*
X028521Y008997D01*
X028521Y009221D01*
X028435Y009428D01*
X028276Y009587D01*
X028069Y009673D01*
X027845Y009673D01*
X027638Y009587D01*
X027562Y009511D02*
X025596Y009511D01*
X025686Y009412D02*
X027473Y009412D01*
X027432Y009314D02*
X025727Y009314D01*
X025765Y009215D02*
X027393Y009215D01*
X027393Y009117D02*
X025765Y009117D01*
X025765Y009018D02*
X027393Y009018D01*
X027425Y008920D02*
X025733Y008920D01*
X025692Y008821D02*
X027466Y008821D01*
X027546Y008722D02*
X025612Y008722D01*
X025503Y008624D02*
X027655Y008624D01*
X028259Y008624D02*
X029335Y008624D01*
X029335Y008722D02*
X028368Y008722D01*
X028448Y008821D02*
X029335Y008821D01*
X029335Y008920D02*
X028489Y008920D01*
X028521Y009018D02*
X029335Y009018D01*
X029335Y009117D02*
X028521Y009117D01*
X028521Y009215D02*
X029335Y009215D01*
X029335Y009314D02*
X028482Y009314D01*
X028442Y009412D02*
X029335Y009412D01*
X029335Y009511D02*
X028352Y009511D01*
X028222Y009609D02*
X029335Y009609D01*
X029335Y009708D02*
X008335Y009708D01*
X008335Y009806D02*
X029335Y009806D01*
X029335Y009905D02*
X008335Y009905D01*
X008335Y010004D02*
X029335Y010004D01*
X029335Y010102D02*
X008335Y010102D01*
X008335Y010201D02*
X029335Y010201D01*
X029335Y010299D02*
X008335Y010299D01*
X008335Y010398D02*
X029335Y010398D01*
X029335Y010496D02*
X008335Y010496D01*
X008335Y010595D02*
X029335Y010595D01*
X029335Y010693D02*
X008335Y010693D01*
X008335Y010792D02*
X029335Y010792D01*
X029335Y010890D02*
X008335Y010890D01*
X008335Y010989D02*
X029335Y010989D01*
X029335Y011088D02*
X008335Y011088D01*
X008335Y011186D02*
X029335Y011186D01*
X029335Y011285D02*
X008335Y011285D01*
X008335Y011383D02*
X029335Y011383D01*
X029335Y011482D02*
X018481Y011482D01*
X018445Y011445D02*
X018548Y011549D01*
X019718Y011549D01*
X019786Y011537D01*
X019802Y011549D01*
X019822Y011549D01*
X019871Y011598D01*
X020152Y011799D01*
X020672Y011799D01*
X020776Y011695D01*
X020911Y011639D01*
X021059Y011639D01*
X021195Y011695D01*
X021299Y011799D01*
X021355Y011935D01*
X021355Y012082D01*
X021299Y012218D01*
X021195Y012323D01*
X021059Y012379D01*
X020911Y012379D01*
X020776Y012323D01*
X020672Y012219D01*
X020103Y012219D01*
X020034Y012230D01*
X020018Y012219D01*
X019998Y012219D01*
X019949Y012170D01*
X019668Y011969D01*
X018548Y011969D01*
X018445Y012073D01*
X018309Y012129D01*
X018161Y012129D01*
X018026Y012073D01*
X018027Y012073D02*
X009821Y012073D01*
X009817Y012059D02*
X009842Y012137D01*
X009854Y012209D01*
X009385Y012209D01*
X009385Y012309D01*
X009285Y012309D01*
X009285Y012777D01*
X009285Y013209D01*
X008817Y013209D01*
X008828Y013137D01*
X008853Y013059D01*
X008890Y012986D01*
X008938Y012920D01*
X008996Y012862D01*
X009063Y012814D01*
X009135Y012777D01*
X009191Y012759D01*
X009135Y012741D01*
X009063Y012704D01*
X008996Y012656D01*
X008938Y012598D01*
X008890Y012531D01*
X008853Y012459D01*
X008828Y012381D01*
X008817Y012309D01*
X009285Y012309D01*
X009285Y012209D01*
X008817Y012209D01*
X008828Y012137D01*
X008853Y012059D01*
X008890Y011986D01*
X008938Y011920D01*
X008996Y011862D01*
X009063Y011814D01*
X009135Y011777D01*
X008335Y011777D01*
X008335Y011679D02*
X017868Y011679D01*
X017865Y011685D02*
X017921Y011549D01*
X018026Y011445D01*
X018161Y011389D01*
X018309Y011389D01*
X018445Y011445D01*
X017989Y011482D02*
X008335Y011482D01*
X008335Y011580D02*
X017909Y011580D01*
X017865Y011685D02*
X017865Y011832D01*
X017921Y011968D01*
X018026Y012073D01*
X017927Y011974D02*
X009771Y011974D01*
X009780Y011986D02*
X009817Y012059D01*
X009780Y011986D02*
X009732Y011920D01*
X009674Y011862D01*
X009608Y011814D01*
X009535Y011777D01*
X009457Y011752D01*
X009385Y011740D01*
X009385Y012209D01*
X009285Y012209D01*
X009285Y011740D01*
X009213Y011752D01*
X009135Y011777D01*
X009285Y011777D02*
X009385Y011777D01*
X009385Y011876D02*
X009285Y011876D01*
X009285Y011974D02*
X009385Y011974D01*
X009385Y012073D02*
X009285Y012073D01*
X009285Y012171D02*
X009385Y012171D01*
X009385Y012270D02*
X020723Y012270D01*
X020887Y012369D02*
X009844Y012369D01*
X009842Y012381D02*
X009817Y012459D01*
X009780Y012531D01*
X009732Y012598D01*
X009674Y012656D01*
X009608Y012704D01*
X009535Y012741D01*
X009479Y012759D01*
X009535Y012777D01*
X009608Y012814D01*
X009674Y012862D01*
X009732Y012920D01*
X009780Y012986D01*
X009817Y013059D01*
X009842Y013137D01*
X009854Y013209D01*
X009385Y013209D01*
X009385Y013309D01*
X009854Y013309D01*
X009842Y013381D01*
X009817Y013459D01*
X009780Y013531D01*
X009732Y013598D01*
X009674Y013656D01*
X009608Y013704D01*
X009535Y013741D01*
X009513Y013748D01*
X010015Y013748D01*
X010015Y013782D02*
X010015Y013635D01*
X010071Y013499D01*
X010176Y013395D01*
X010311Y013339D01*
X010459Y013339D01*
X010595Y013395D01*
X010698Y013499D01*
X010922Y013499D01*
X011026Y013395D01*
X011161Y013339D01*
X011309Y013339D01*
X011445Y013395D01*
X011549Y013499D01*
X011605Y013635D01*
X011605Y013782D01*
X011549Y013918D01*
X011445Y014023D01*
X011309Y014079D01*
X011161Y014079D01*
X011026Y014023D01*
X010922Y013919D01*
X010698Y013919D01*
X010595Y014023D01*
X010459Y014079D01*
X010311Y014079D01*
X010176Y014023D01*
X010071Y013918D01*
X010015Y013782D01*
X010042Y013847D02*
X009687Y013847D01*
X009641Y013801D02*
X009793Y013953D01*
X009875Y014151D01*
X009875Y014249D01*
X014222Y014249D01*
X014345Y014372D01*
X014362Y014389D01*
X014509Y014389D01*
X014645Y014445D01*
X014749Y014549D01*
X014805Y014685D01*
X014805Y014832D01*
X018178Y014832D01*
X018178Y014734D02*
X014805Y014734D01*
X014805Y014832D02*
X014749Y014968D01*
X014645Y015073D01*
X014509Y015129D01*
X014361Y015129D01*
X014226Y015073D01*
X014121Y014968D01*
X014065Y014832D01*
X009672Y014832D01*
X009641Y014801D02*
X009793Y014953D01*
X009874Y015149D01*
X018079Y015149D01*
X018178Y015051D01*
X018176Y013123D01*
X018071Y013018D01*
X018015Y012882D01*
X018015Y012735D01*
X018071Y012599D01*
X018176Y012495D01*
X018311Y012439D01*
X018459Y012439D01*
X018595Y012495D01*
X018699Y012599D01*
X018755Y012735D01*
X018755Y012882D01*
X018699Y013018D01*
X018595Y013122D01*
X018598Y015052D01*
X018599Y015053D01*
X018598Y015139D01*
X018598Y015225D01*
X018598Y015226D01*
X018598Y015227D01*
X018535Y015288D01*
X018476Y015348D01*
X018474Y015348D01*
X018313Y015508D01*
X018252Y015569D01*
X018251Y015569D01*
X018250Y015569D01*
X018163Y015569D01*
X009789Y015569D01*
X009641Y015717D01*
X009539Y015759D01*
X009641Y015801D01*
X009793Y015953D01*
X009875Y016151D01*
X009875Y016366D01*
X009793Y016565D01*
X009641Y016717D01*
X009539Y016759D01*
X009641Y016801D01*
X009793Y016953D01*
X009875Y017151D01*
X009875Y017366D01*
X009793Y017565D01*
X009641Y017717D01*
X009539Y017759D01*
X009641Y017801D01*
X009793Y017953D01*
X009875Y018151D01*
X009875Y018366D01*
X009793Y018565D01*
X009641Y018717D01*
X009539Y018759D01*
X009641Y018801D01*
X009793Y018953D01*
X009875Y019151D01*
X009875Y019366D01*
X009793Y019565D01*
X009641Y019717D01*
X009443Y019799D01*
X009228Y019799D01*
X009029Y019717D01*
X008877Y019565D01*
X008795Y019366D01*
X008795Y019151D01*
X008877Y018953D01*
X009029Y018801D01*
X009131Y018759D01*
X009029Y018717D01*
X008877Y018565D01*
X008795Y018366D01*
X008795Y018151D01*
X008877Y017953D01*
X009029Y017801D01*
X009131Y017759D01*
X009029Y017717D01*
X008877Y017565D01*
X008795Y017366D01*
X008795Y017151D01*
X008877Y016953D01*
X009029Y016801D01*
X009131Y016759D01*
X009029Y016717D01*
X008877Y016565D01*
X008795Y016366D01*
X008795Y016151D01*
X008877Y015953D01*
X009029Y015801D01*
X009131Y015759D01*
X009029Y015717D01*
X008877Y015565D01*
X008795Y015366D01*
X008795Y015151D01*
X008877Y014953D01*
X009029Y014801D01*
X009131Y014759D01*
X009029Y014717D01*
X008877Y014565D01*
X008795Y014366D01*
X008795Y014151D01*
X008877Y013953D01*
X009029Y013801D01*
X009158Y013748D01*
X009135Y013741D01*
X009063Y013704D01*
X008996Y013656D01*
X008938Y013598D01*
X008890Y013531D01*
X008853Y013459D01*
X008828Y013381D01*
X008817Y013309D01*
X009285Y013309D01*
X009285Y013209D01*
X009385Y013209D01*
X009385Y012740D01*
X009385Y012309D01*
X009854Y012309D01*
X009842Y012381D01*
X009813Y012467D02*
X018243Y012467D01*
X018105Y012566D02*
X009755Y012566D01*
X009662Y012664D02*
X013607Y012664D01*
X013626Y012645D02*
X013761Y012589D01*
X013909Y012589D01*
X014045Y012645D01*
X014148Y012749D01*
X015622Y012749D01*
X015626Y012745D01*
X015761Y012689D01*
X015909Y012689D01*
X016045Y012745D01*
X016149Y012849D01*
X016205Y012985D01*
X016205Y013132D01*
X016149Y013268D01*
X016045Y013373D01*
X015909Y013429D01*
X015761Y013429D01*
X015626Y013373D01*
X015521Y013268D01*
X015480Y013169D01*
X014148Y013169D01*
X014045Y013273D01*
X013909Y013329D01*
X013761Y013329D01*
X013626Y013273D01*
X013521Y013168D01*
X013465Y013032D01*
X013465Y012885D01*
X013521Y012749D01*
X013626Y012645D01*
X013516Y012763D02*
X009491Y012763D01*
X009385Y012763D02*
X009285Y012763D01*
X009285Y012861D02*
X009385Y012861D01*
X009385Y012960D02*
X009285Y012960D01*
X009285Y013058D02*
X009385Y013058D01*
X009385Y013157D02*
X009285Y013157D01*
X009285Y013255D02*
X008335Y013255D01*
X008335Y013157D02*
X008825Y013157D01*
X008854Y013058D02*
X008335Y013058D01*
X008335Y012960D02*
X008910Y012960D01*
X008998Y012861D02*
X008335Y012861D01*
X008335Y012763D02*
X009179Y012763D01*
X009285Y012664D02*
X009385Y012664D01*
X009385Y012566D02*
X009285Y012566D01*
X009285Y012467D02*
X009385Y012467D01*
X009385Y012369D02*
X009285Y012369D01*
X009285Y012270D02*
X008335Y012270D01*
X008335Y012171D02*
X008822Y012171D01*
X008849Y012073D02*
X008335Y012073D01*
X008335Y011974D02*
X008899Y011974D01*
X008983Y011876D02*
X008335Y011876D01*
X008335Y012369D02*
X008826Y012369D01*
X008858Y012467D02*
X008335Y012467D01*
X008335Y012566D02*
X008915Y012566D01*
X009008Y012664D02*
X008335Y012664D01*
X008335Y013354D02*
X008824Y013354D01*
X008851Y013453D02*
X008335Y013453D01*
X008335Y013551D02*
X008905Y013551D01*
X008990Y013650D02*
X008335Y013650D01*
X008335Y013748D02*
X009157Y013748D01*
X008984Y013847D02*
X008335Y013847D01*
X008335Y013945D02*
X008885Y013945D01*
X008840Y014044D02*
X008335Y014044D01*
X008335Y014142D02*
X008799Y014142D01*
X008795Y014241D02*
X008335Y014241D01*
X008335Y014339D02*
X008795Y014339D01*
X008825Y014438D02*
X008335Y014438D01*
X008335Y014537D02*
X008866Y014537D01*
X008948Y014635D02*
X008335Y014635D01*
X008335Y014734D02*
X009070Y014734D01*
X008998Y014832D02*
X008335Y014832D01*
X008335Y014931D02*
X008900Y014931D01*
X008846Y015029D02*
X008335Y015029D01*
X008335Y015128D02*
X008805Y015128D01*
X008795Y015226D02*
X008335Y015226D01*
X008335Y015325D02*
X008795Y015325D01*
X008819Y015423D02*
X008335Y015423D01*
X008335Y015522D02*
X008860Y015522D01*
X008933Y015621D02*
X008335Y015621D01*
X008335Y015719D02*
X009035Y015719D01*
X009013Y015818D02*
X008335Y015818D01*
X008335Y015916D02*
X008914Y015916D01*
X008852Y016015D02*
X008335Y016015D01*
X008335Y016113D02*
X008811Y016113D01*
X008795Y016212D02*
X008335Y016212D01*
X008335Y016310D02*
X008795Y016310D01*
X008813Y016409D02*
X008335Y016409D01*
X008335Y016507D02*
X008854Y016507D01*
X008919Y016606D02*
X008335Y016606D01*
X008335Y016704D02*
X009017Y016704D01*
X009027Y016803D02*
X008335Y016803D01*
X008335Y016902D02*
X008929Y016902D01*
X008858Y017000D02*
X008335Y017000D01*
X008335Y017099D02*
X008817Y017099D01*
X008795Y017197D02*
X008335Y017197D01*
X008335Y017296D02*
X008795Y017296D01*
X008807Y017394D02*
X008335Y017394D01*
X008335Y017493D02*
X008848Y017493D01*
X008904Y017591D02*
X008335Y017591D01*
X008335Y017690D02*
X009002Y017690D01*
X009060Y017788D02*
X008335Y017788D01*
X008335Y017887D02*
X008943Y017887D01*
X008864Y017986D02*
X008335Y017986D01*
X008335Y018084D02*
X008823Y018084D01*
X008795Y018183D02*
X008335Y018183D01*
X008335Y018281D02*
X008795Y018281D01*
X008801Y018380D02*
X008335Y018380D01*
X008335Y018478D02*
X008841Y018478D01*
X008889Y018577D02*
X008335Y018577D01*
X008335Y018675D02*
X008988Y018675D01*
X009095Y018774D02*
X008335Y018774D01*
X008335Y018872D02*
X008958Y018872D01*
X008870Y018971D02*
X008335Y018971D01*
X008335Y019070D02*
X008829Y019070D01*
X008795Y019168D02*
X008335Y019168D01*
X008335Y019267D02*
X008795Y019267D01*
X008795Y019365D02*
X008335Y019365D01*
X008335Y019464D02*
X008835Y019464D01*
X008876Y019562D02*
X008335Y019562D01*
X008335Y019661D02*
X008973Y019661D01*
X009132Y019759D02*
X008335Y019759D01*
X008335Y019858D02*
X011950Y019858D01*
X011939Y019836D02*
X011918Y019772D01*
X011908Y019706D01*
X011908Y019701D01*
X012306Y019701D01*
X012306Y019643D01*
X012364Y019643D01*
X012364Y019245D01*
X012369Y019245D01*
X012435Y019255D01*
X012499Y019276D01*
X012559Y019307D01*
X012614Y019346D01*
X012661Y019394D01*
X012701Y019448D01*
X012731Y019508D01*
X012752Y019572D01*
X012763Y019639D01*
X012763Y019643D01*
X012364Y019643D01*
X012364Y019701D01*
X012763Y019701D01*
X012763Y019706D01*
X012752Y019772D01*
X012731Y019836D01*
X012701Y019896D01*
X012661Y019951D01*
X012614Y019998D01*
X012559Y020038D01*
X012526Y020055D01*
X012589Y020080D01*
X012714Y020206D01*
X012775Y020352D01*
X015167Y022744D01*
X015228Y022719D01*
X015443Y022719D01*
X015641Y022801D01*
X015793Y022953D01*
X015875Y023151D01*
X015875Y023366D01*
X015793Y023565D01*
X015641Y023717D01*
X015443Y023799D01*
X015228Y023799D01*
X015029Y023717D01*
X014877Y023565D01*
X014795Y023366D01*
X014795Y023151D01*
X014820Y023091D01*
X012575Y020845D01*
X012554Y020853D01*
X012589Y020868D01*
X012714Y020994D01*
X012783Y021158D01*
X012783Y021336D01*
X013066Y021336D01*
X013164Y021435D02*
X012742Y021435D01*
X012714Y021501D02*
X012589Y021626D01*
X012554Y021641D01*
X012589Y021655D01*
X012714Y021781D01*
X012783Y021945D01*
X012783Y022124D01*
X012714Y022288D01*
X012589Y022414D01*
X012554Y022428D01*
X012589Y022443D01*
X012714Y022568D01*
X012783Y022733D01*
X012783Y022911D01*
X012714Y023075D01*
X012589Y023201D01*
X012554Y023216D01*
X012589Y023230D01*
X012714Y023356D01*
X012783Y023520D01*
X012783Y023698D01*
X012714Y023863D01*
X012589Y023989D01*
X012554Y024003D01*
X012589Y024017D01*
X012714Y024143D01*
X012783Y024308D01*
X012783Y024486D01*
X012714Y024650D01*
X012589Y024776D01*
X012554Y024790D01*
X012589Y024805D01*
X012714Y024931D01*
X012783Y025095D01*
X012783Y025273D01*
X012714Y025438D01*
X012589Y025563D01*
X012554Y025578D01*
X012589Y025592D01*
X012597Y025600D01*
X012825Y025372D01*
X012948Y025249D01*
X015795Y025249D01*
X015795Y025151D01*
X015877Y024953D01*
X016029Y024801D01*
X016228Y024719D01*
X016443Y024719D01*
X016641Y024801D01*
X016793Y024953D01*
X016875Y025151D01*
X016875Y025366D01*
X016793Y025565D01*
X016641Y025717D01*
X016443Y025799D01*
X016228Y025799D01*
X016029Y025717D01*
X015981Y025669D01*
X015848Y025669D01*
X013122Y025669D01*
X012783Y026008D01*
X012783Y026061D01*
X012714Y026225D01*
X012608Y026331D01*
X012632Y026331D01*
X012670Y026342D01*
X012705Y026361D01*
X012733Y026389D01*
X012752Y026424D01*
X012763Y026462D01*
X012763Y026730D01*
X012364Y026730D01*
X012364Y026788D01*
X012306Y026788D01*
X012306Y027186D01*
X012038Y027186D01*
X012000Y027176D01*
X011966Y027156D01*
X011938Y027128D01*
X011918Y027094D01*
X011908Y027056D01*
X011908Y026788D01*
X012306Y026788D01*
X012306Y026730D01*
X011908Y026730D01*
X011908Y026462D01*
X011918Y026424D01*
X011938Y026389D01*
X011966Y026361D01*
X012000Y026342D01*
X012038Y026331D01*
X012062Y026331D01*
X011956Y026225D01*
X011888Y026061D01*
X011888Y025882D01*
X011956Y025718D01*
X012082Y025592D01*
X012116Y025578D01*
X012095Y025569D01*
X011922Y025569D01*
X011845Y025646D01*
X011722Y025769D01*
X009875Y025769D01*
X009875Y025866D01*
X009793Y026065D01*
X009641Y026217D01*
X009539Y026259D01*
X009641Y026301D01*
X009793Y026453D01*
X009875Y026651D01*
X009875Y026749D01*
X010029Y026749D01*
X010029Y026677D01*
X010128Y026577D01*
X010742Y026577D01*
X010841Y026677D01*
X010841Y027132D01*
X010742Y027232D01*
X010128Y027232D01*
X010065Y027169D01*
X009822Y027169D01*
X009689Y027169D01*
X009641Y027217D01*
X009539Y027259D01*
X009641Y027301D01*
X009793Y027453D01*
X009875Y027651D01*
X009875Y027866D01*
X009839Y027952D01*
X010126Y028239D01*
X011518Y028239D01*
X011425Y028146D01*
X011220Y027941D01*
X010928Y027941D01*
X010857Y027869D01*
X010814Y027869D01*
X010742Y027941D01*
X010128Y027941D01*
X010029Y027841D01*
X010029Y027385D01*
X010128Y027286D01*
X010742Y027286D01*
X010835Y027379D01*
X010928Y027286D01*
X011542Y027286D01*
X011641Y027385D01*
X011641Y027768D01*
X011722Y027849D01*
X014808Y027849D01*
X014827Y027803D01*
X014979Y027651D01*
X015178Y027569D01*
X015393Y027569D01*
X015591Y027651D01*
X015743Y027803D01*
X015785Y027905D01*
X015827Y027803D01*
X015979Y027651D01*
X016178Y027569D01*
X016393Y027569D01*
X016591Y027651D01*
X016743Y027803D01*
X016796Y027931D01*
X016803Y027909D01*
X016840Y027836D01*
X016888Y027770D01*
X016946Y027712D01*
X017013Y027664D01*
X017085Y027627D01*
X017163Y027602D01*
X017235Y027590D01*
X017235Y028059D01*
X017335Y028059D01*
X017335Y028159D01*
X017235Y028159D01*
X017235Y028627D01*
X017163Y028616D01*
X017085Y028591D01*
X017013Y028554D01*
X016946Y028506D01*
X016888Y028448D01*
X016840Y028381D01*
X016803Y028309D01*
X016796Y028286D01*
X016743Y028415D01*
X016591Y028567D01*
X016393Y028649D01*
X016256Y028649D01*
X016055Y028850D01*
X015926Y028979D01*
X014094Y028979D01*
X013965Y028850D01*
X013794Y028679D01*
X010126Y028679D01*
X009944Y028679D01*
X009528Y028263D01*
X009443Y028299D01*
X009228Y028299D01*
X009029Y028217D01*
X008877Y028065D01*
X008795Y027866D01*
X008795Y027651D01*
X008877Y027453D01*
X009029Y027301D01*
X009131Y027259D01*
X009029Y027217D01*
X008877Y027065D01*
X008795Y026866D01*
X008795Y026651D01*
X008877Y026453D01*
X009029Y026301D01*
X009131Y026259D01*
X009029Y026217D01*
X008877Y026065D01*
X008795Y025866D01*
X008795Y025651D01*
X008877Y025453D01*
X009029Y025301D01*
X009131Y025259D01*
X009029Y025217D01*
X008877Y025065D01*
X008795Y024866D01*
X008795Y024651D01*
X008877Y024453D01*
X009029Y024301D01*
X009131Y024259D01*
X009029Y024217D01*
X008877Y024065D01*
X008795Y023866D01*
X008795Y023651D01*
X008877Y023453D01*
X009029Y023301D01*
X009131Y023259D01*
X009029Y023217D01*
X008877Y023065D01*
X008795Y022866D01*
X008795Y022651D01*
X008877Y022453D01*
X009029Y022301D01*
X009131Y022259D01*
X009029Y022217D01*
X008877Y022065D01*
X008795Y021866D01*
X008795Y021651D01*
X008877Y021453D01*
X009029Y021301D01*
X009131Y021259D01*
X009029Y021217D01*
X008877Y021065D01*
X008795Y020866D01*
X008795Y020651D01*
X008877Y020453D01*
X009029Y020301D01*
X009228Y020219D01*
X009443Y020219D01*
X009641Y020301D01*
X009793Y020453D01*
X009875Y020651D01*
X009875Y020849D01*
X012106Y020849D01*
X012082Y020839D01*
X011956Y020713D01*
X011888Y020549D01*
X011888Y020371D01*
X011956Y020206D01*
X012082Y020080D01*
X012144Y020055D01*
X012111Y020038D01*
X012057Y019998D01*
X012009Y019951D01*
X011969Y019896D01*
X011939Y019836D01*
X011916Y019759D02*
X009538Y019759D01*
X009697Y019661D02*
X012306Y019661D01*
X012306Y019643D02*
X011908Y019643D01*
X011908Y019639D01*
X011918Y019572D01*
X011939Y019508D01*
X011969Y019448D01*
X012009Y019394D01*
X012057Y019346D01*
X012111Y019307D01*
X012171Y019276D01*
X012235Y019255D01*
X012301Y019245D01*
X012306Y019245D01*
X012306Y019643D01*
X012364Y019661D02*
X027824Y019661D01*
X027828Y019637D02*
X027853Y019559D01*
X027890Y019486D01*
X027938Y019420D01*
X027996Y019362D01*
X028063Y019314D01*
X028135Y019277D01*
X028191Y019259D01*
X028135Y019241D01*
X028063Y019204D01*
X027996Y019156D01*
X027938Y019098D01*
X027890Y019031D01*
X027853Y018959D01*
X027828Y018881D01*
X027817Y018809D01*
X028285Y018809D01*
X028285Y019240D01*
X028285Y019709D01*
X027817Y019709D01*
X027828Y019637D01*
X027852Y019562D02*
X012749Y019562D01*
X012709Y019464D02*
X027907Y019464D01*
X027993Y019365D02*
X012633Y019365D01*
X012470Y019267D02*
X028167Y019267D01*
X028285Y019267D02*
X028385Y019267D01*
X028385Y019240D02*
X028385Y019709D01*
X028385Y019809D01*
X028854Y019809D01*
X028842Y019881D01*
X028817Y019959D01*
X028780Y020031D01*
X028732Y020098D01*
X028674Y020156D01*
X028608Y020204D01*
X028535Y020241D01*
X028513Y020248D01*
X028641Y020301D01*
X028793Y020453D01*
X028875Y020651D01*
X028875Y020866D01*
X028793Y021065D01*
X028641Y021217D01*
X028443Y021299D01*
X028228Y021299D01*
X028029Y021217D01*
X027877Y021065D01*
X027795Y020866D01*
X027795Y020651D01*
X027877Y020453D01*
X028029Y020301D01*
X028158Y020248D01*
X028135Y020241D01*
X028063Y020204D01*
X027996Y020156D01*
X027938Y020098D01*
X027890Y020031D01*
X027853Y019959D01*
X027828Y019881D01*
X027817Y019809D01*
X028285Y019809D01*
X028285Y019709D01*
X028385Y019709D01*
X028854Y019709D01*
X028842Y019637D01*
X028817Y019559D01*
X028780Y019486D01*
X028732Y019420D01*
X028674Y019362D01*
X028608Y019314D01*
X028535Y019277D01*
X028479Y019259D01*
X028535Y019241D01*
X028608Y019204D01*
X028674Y019156D01*
X028732Y019098D01*
X028780Y019031D01*
X028817Y018959D01*
X028842Y018881D01*
X028854Y018809D01*
X028385Y018809D01*
X028285Y018809D01*
X028285Y018709D01*
X027817Y018709D01*
X027828Y018637D01*
X027853Y018559D01*
X027890Y018486D01*
X027938Y018420D01*
X027996Y018362D01*
X028063Y018314D01*
X028135Y018277D01*
X028158Y018270D01*
X028029Y018217D01*
X027877Y018065D01*
X027795Y017866D01*
X027795Y017651D01*
X027877Y017453D01*
X028029Y017301D01*
X028131Y017259D01*
X028029Y017217D01*
X027877Y017065D01*
X027795Y016866D01*
X027795Y016651D01*
X027877Y016453D01*
X028029Y016301D01*
X028131Y016259D01*
X028029Y016217D01*
X027877Y016065D01*
X027795Y015866D01*
X027795Y015651D01*
X027877Y015453D01*
X028029Y015301D01*
X028228Y015219D01*
X028443Y015219D01*
X028641Y015301D01*
X028793Y015453D01*
X028875Y015651D01*
X028875Y015866D01*
X028793Y016065D01*
X028641Y016217D01*
X028539Y016259D01*
X028641Y016301D01*
X028793Y016453D01*
X028875Y016651D01*
X028875Y016866D01*
X028793Y017065D01*
X028641Y017217D01*
X028539Y017259D01*
X028641Y017301D01*
X028793Y017453D01*
X028875Y017651D01*
X028875Y017866D01*
X028793Y018065D01*
X028641Y018217D01*
X028513Y018270D01*
X028535Y018277D01*
X028608Y018314D01*
X028674Y018362D01*
X028732Y018420D01*
X028780Y018486D01*
X028817Y018559D01*
X028842Y018637D01*
X028854Y018709D01*
X028385Y018709D01*
X028385Y018809D01*
X028385Y019240D01*
X028385Y019168D02*
X028285Y019168D01*
X028285Y019070D02*
X028385Y019070D01*
X028385Y018971D02*
X028285Y018971D01*
X028285Y018872D02*
X028385Y018872D01*
X028385Y018774D02*
X029335Y018774D01*
X029335Y018872D02*
X028844Y018872D01*
X028811Y018971D02*
X029335Y018971D01*
X029335Y019070D02*
X028752Y019070D01*
X028657Y019168D02*
X029335Y019168D01*
X029335Y019267D02*
X028503Y019267D01*
X028385Y019365D02*
X028285Y019365D01*
X028285Y019464D02*
X028385Y019464D01*
X028385Y019562D02*
X028285Y019562D01*
X028285Y019661D02*
X028385Y019661D01*
X028385Y019759D02*
X029335Y019759D01*
X029335Y019661D02*
X028846Y019661D01*
X028818Y019562D02*
X029335Y019562D01*
X029335Y019464D02*
X028763Y019464D01*
X028677Y019365D02*
X029335Y019365D01*
X029335Y019858D02*
X028846Y019858D01*
X028818Y019956D02*
X029335Y019956D01*
X029335Y020055D02*
X028763Y020055D01*
X028676Y020154D02*
X029335Y020154D01*
X029335Y020252D02*
X028523Y020252D01*
X028690Y020351D02*
X029335Y020351D01*
X029335Y020449D02*
X028789Y020449D01*
X028832Y020548D02*
X029335Y020548D01*
X029335Y020646D02*
X028873Y020646D01*
X028875Y020745D02*
X029335Y020745D01*
X029335Y020843D02*
X028875Y020843D01*
X028844Y020942D02*
X029335Y020942D01*
X029335Y021040D02*
X028803Y021040D01*
X028719Y021139D02*
X029335Y021139D01*
X029335Y021237D02*
X028591Y021237D01*
X028080Y021237D02*
X013660Y021237D01*
X013562Y021139D02*
X027951Y021139D01*
X027867Y021040D02*
X013463Y021040D01*
X013365Y020942D02*
X027826Y020942D01*
X027795Y020843D02*
X013266Y020843D01*
X013167Y020745D02*
X027795Y020745D01*
X027797Y020646D02*
X013069Y020646D01*
X012970Y020548D02*
X027838Y020548D01*
X027881Y020449D02*
X012872Y020449D01*
X012774Y020351D02*
X027980Y020351D01*
X028148Y020252D02*
X012733Y020252D01*
X012662Y020154D02*
X027994Y020154D01*
X027907Y020055D02*
X012527Y020055D01*
X012655Y019956D02*
X027853Y019956D01*
X027824Y019858D02*
X012720Y019858D01*
X012754Y019759D02*
X028285Y019759D01*
X028014Y019168D02*
X009875Y019168D01*
X009875Y019267D02*
X012200Y019267D01*
X012306Y019267D02*
X012364Y019267D01*
X012364Y019365D02*
X012306Y019365D01*
X012306Y019464D02*
X012364Y019464D01*
X012364Y019562D02*
X012306Y019562D01*
X012038Y019365D02*
X009875Y019365D01*
X009835Y019464D02*
X011962Y019464D01*
X011921Y019562D02*
X009794Y019562D01*
X009841Y019070D02*
X027918Y019070D01*
X027860Y018971D02*
X009800Y018971D01*
X009712Y018872D02*
X027827Y018872D01*
X027822Y018675D02*
X009682Y018675D01*
X009781Y018577D02*
X027847Y018577D01*
X027896Y018478D02*
X009829Y018478D01*
X009870Y018380D02*
X027979Y018380D01*
X028127Y018281D02*
X009875Y018281D01*
X009875Y018183D02*
X027995Y018183D01*
X027897Y018084D02*
X009847Y018084D01*
X009806Y017986D02*
X027845Y017986D01*
X027804Y017887D02*
X009727Y017887D01*
X009610Y017788D02*
X027795Y017788D01*
X027795Y017690D02*
X009668Y017690D01*
X009766Y017591D02*
X027820Y017591D01*
X027861Y017493D02*
X009823Y017493D01*
X009864Y017394D02*
X027936Y017394D01*
X028042Y017296D02*
X009875Y017296D01*
X009875Y017197D02*
X028010Y017197D01*
X027911Y017099D02*
X009853Y017099D01*
X009812Y017000D02*
X027851Y017000D01*
X027810Y016902D02*
X009741Y016902D01*
X009643Y016803D02*
X027795Y016803D01*
X027795Y016704D02*
X009653Y016704D01*
X009752Y016606D02*
X027814Y016606D01*
X027855Y016507D02*
X009817Y016507D01*
X009857Y016409D02*
X027921Y016409D01*
X028020Y016310D02*
X009875Y016310D01*
X009875Y016212D02*
X028024Y016212D01*
X027926Y016113D02*
X009859Y016113D01*
X009818Y016015D02*
X027857Y016015D01*
X027816Y015916D02*
X009756Y015916D01*
X009657Y015818D02*
X027795Y015818D01*
X027795Y015719D02*
X009635Y015719D01*
X009737Y015621D02*
X027808Y015621D01*
X027849Y015522D02*
X018299Y015522D01*
X018398Y015423D02*
X027907Y015423D01*
X028005Y015325D02*
X018499Y015325D01*
X018598Y015226D02*
X028210Y015226D01*
X028460Y015226D02*
X029335Y015226D01*
X029335Y015128D02*
X018598Y015128D01*
X018598Y015029D02*
X029335Y015029D01*
X029335Y014931D02*
X018598Y014931D01*
X018598Y014832D02*
X029335Y014832D01*
X029335Y014734D02*
X018598Y014734D01*
X018598Y014635D02*
X029335Y014635D01*
X029335Y014537D02*
X018597Y014537D01*
X018597Y014438D02*
X029335Y014438D01*
X029335Y014339D02*
X018597Y014339D01*
X018597Y014241D02*
X026588Y014241D01*
X026529Y014217D02*
X026377Y014065D01*
X026295Y013866D01*
X026295Y013651D01*
X026377Y013453D01*
X026529Y013301D01*
X026728Y013219D01*
X027683Y013219D01*
X027881Y013301D01*
X028033Y013453D01*
X028115Y013651D01*
X028115Y013866D01*
X028033Y014065D01*
X027881Y014217D01*
X027683Y014299D01*
X026728Y014299D01*
X026529Y014217D01*
X026455Y014142D02*
X018597Y014142D01*
X018597Y014044D02*
X026369Y014044D01*
X026328Y013945D02*
X018597Y013945D01*
X018596Y013847D02*
X026295Y013847D01*
X026295Y013748D02*
X018596Y013748D01*
X018596Y013650D02*
X026296Y013650D01*
X026337Y013551D02*
X018596Y013551D01*
X018596Y013453D02*
X026378Y013453D01*
X026476Y013354D02*
X018596Y013354D01*
X018596Y013255D02*
X026639Y013255D01*
X027771Y013255D02*
X029335Y013255D01*
X029335Y013157D02*
X018596Y013157D01*
X018659Y013058D02*
X029335Y013058D01*
X029335Y012960D02*
X018723Y012960D01*
X018755Y012861D02*
X029335Y012861D01*
X029335Y012763D02*
X018755Y012763D01*
X018726Y012664D02*
X029335Y012664D01*
X029335Y012566D02*
X018665Y012566D01*
X018527Y012467D02*
X029335Y012467D01*
X029335Y012369D02*
X021084Y012369D01*
X021247Y012270D02*
X029335Y012270D01*
X029335Y012171D02*
X021318Y012171D01*
X021355Y012073D02*
X029335Y012073D01*
X029335Y011974D02*
X021355Y011974D01*
X021330Y011876D02*
X029335Y011876D01*
X029335Y011777D02*
X021277Y011777D01*
X021155Y011679D02*
X029335Y011679D01*
X029335Y011580D02*
X019853Y011580D01*
X019984Y011679D02*
X020815Y011679D01*
X020693Y011777D02*
X020122Y011777D01*
X019814Y012073D02*
X018444Y012073D01*
X018543Y011974D02*
X019676Y011974D01*
X019951Y012171D02*
X009848Y012171D01*
X009687Y011876D02*
X017883Y011876D01*
X017865Y011777D02*
X009535Y011777D01*
X009673Y012861D02*
X013475Y012861D01*
X013465Y012960D02*
X009761Y012960D01*
X009816Y013058D02*
X013476Y013058D01*
X013517Y013157D02*
X009845Y013157D01*
X009846Y013354D02*
X010275Y013354D01*
X010118Y013453D02*
X009819Y013453D01*
X009766Y013551D02*
X010050Y013551D01*
X010015Y013650D02*
X009680Y013650D01*
X009641Y013801D02*
X009513Y013748D01*
X009785Y013945D02*
X010098Y013945D01*
X010227Y014044D02*
X009830Y014044D01*
X009871Y014142D02*
X018177Y014142D01*
X018177Y014044D02*
X011393Y014044D01*
X011522Y013945D02*
X018177Y013945D01*
X018177Y013847D02*
X011578Y013847D01*
X011605Y013748D02*
X018176Y013748D01*
X018176Y013650D02*
X011605Y013650D01*
X011570Y013551D02*
X018176Y013551D01*
X018176Y013453D02*
X011502Y013453D01*
X011345Y013354D02*
X015607Y013354D01*
X015516Y013255D02*
X014062Y013255D01*
X013608Y013255D02*
X009385Y013255D01*
X009875Y014241D02*
X018177Y014241D01*
X018177Y014339D02*
X014313Y014339D01*
X014627Y014438D02*
X018177Y014438D01*
X018177Y014537D02*
X014736Y014537D01*
X014784Y014635D02*
X018178Y014635D01*
X018178Y014931D02*
X014764Y014931D01*
X014688Y015029D02*
X018178Y015029D01*
X018100Y015128D02*
X014511Y015128D01*
X014359Y015128D02*
X009865Y015128D01*
X009824Y015029D02*
X014182Y015029D01*
X014106Y014931D02*
X009771Y014931D01*
X009641Y014801D02*
X009539Y014759D01*
X009641Y014717D01*
X009689Y014669D01*
X009822Y014669D01*
X014048Y014669D01*
X014065Y014686D01*
X014065Y014832D01*
X014065Y014734D02*
X009600Y014734D01*
X010543Y014044D02*
X011077Y014044D01*
X010948Y013945D02*
X010672Y013945D01*
X010652Y013453D02*
X010968Y013453D01*
X011125Y013354D02*
X010495Y013354D01*
X014064Y012664D02*
X018045Y012664D01*
X018015Y012763D02*
X016062Y012763D01*
X016154Y012861D02*
X018015Y012861D01*
X018047Y012960D02*
X016195Y012960D01*
X016205Y013058D02*
X018111Y013058D01*
X018176Y013123D02*
X018176Y013123D01*
X018176Y013157D02*
X016195Y013157D01*
X016154Y013255D02*
X018176Y013255D01*
X018176Y013354D02*
X016063Y013354D01*
X008940Y009609D02*
X008335Y009609D01*
X008335Y009511D02*
X008792Y009511D01*
X008667Y009427D02*
X008667Y009427D01*
X008657Y009412D02*
X008335Y009412D01*
X008335Y009314D02*
X008591Y009314D01*
X008525Y009215D02*
X008335Y009215D01*
X008335Y009117D02*
X008461Y009117D01*
X008442Y009018D02*
X008335Y009018D01*
X008335Y008920D02*
X008422Y008920D01*
X008402Y008821D02*
X008335Y008821D01*
X008335Y008722D02*
X008397Y008722D01*
X008417Y008624D02*
X008335Y008624D01*
X008335Y008525D02*
X008437Y008525D01*
X008456Y008427D02*
X008335Y008427D01*
X008335Y008328D02*
X008508Y008328D01*
X008574Y008230D02*
X008335Y008230D01*
X008335Y008131D02*
X008640Y008131D01*
X008667Y008091D02*
X008667Y008091D01*
X008754Y008033D02*
X008335Y008033D01*
X008335Y007934D02*
X008901Y007934D01*
X008448Y007146D02*
X029222Y007146D01*
X029123Y007047D02*
X008547Y007047D01*
X008645Y006949D02*
X029025Y006949D01*
X028926Y006850D02*
X008744Y006850D01*
X008842Y006752D02*
X028828Y006752D01*
X028729Y006653D02*
X008941Y006653D01*
X009039Y006555D02*
X028631Y006555D01*
X028532Y006456D02*
X009138Y006456D01*
X009575Y018774D02*
X028285Y018774D01*
X028543Y018281D02*
X029335Y018281D01*
X029335Y018183D02*
X028675Y018183D01*
X028774Y018084D02*
X029335Y018084D01*
X029335Y017986D02*
X028826Y017986D01*
X028867Y017887D02*
X029335Y017887D01*
X029335Y017788D02*
X028875Y017788D01*
X028875Y017690D02*
X029335Y017690D01*
X029335Y017591D02*
X028850Y017591D01*
X028809Y017493D02*
X029335Y017493D01*
X029335Y017394D02*
X028734Y017394D01*
X028628Y017296D02*
X029335Y017296D01*
X029335Y017197D02*
X028660Y017197D01*
X028759Y017099D02*
X029335Y017099D01*
X029335Y017000D02*
X028820Y017000D01*
X028860Y016902D02*
X029335Y016902D01*
X029335Y016803D02*
X028875Y016803D01*
X028875Y016704D02*
X029335Y016704D01*
X029335Y016606D02*
X028856Y016606D01*
X028815Y016507D02*
X029335Y016507D01*
X029335Y016409D02*
X028749Y016409D01*
X028650Y016310D02*
X029335Y016310D01*
X029335Y016212D02*
X028646Y016212D01*
X028744Y016113D02*
X029335Y016113D01*
X029335Y016015D02*
X028814Y016015D01*
X028854Y015916D02*
X029335Y015916D01*
X029335Y015818D02*
X028875Y015818D01*
X028875Y015719D02*
X029335Y015719D01*
X029335Y015621D02*
X028862Y015621D01*
X028821Y015522D02*
X029335Y015522D01*
X029335Y015423D02*
X028763Y015423D01*
X028665Y015325D02*
X029335Y015325D01*
X029335Y014241D02*
X027822Y014241D01*
X027955Y014142D02*
X029335Y014142D01*
X029335Y014044D02*
X028042Y014044D01*
X028082Y013945D02*
X029335Y013945D01*
X029335Y013847D02*
X028115Y013847D01*
X028115Y013748D02*
X029335Y013748D01*
X029335Y013650D02*
X028114Y013650D01*
X028074Y013551D02*
X029335Y013551D01*
X029335Y013453D02*
X028032Y013453D01*
X027934Y013354D02*
X029335Y013354D01*
X029335Y018380D02*
X028691Y018380D01*
X028774Y018478D02*
X029335Y018478D01*
X029335Y018577D02*
X028823Y018577D01*
X028848Y018675D02*
X029335Y018675D01*
X029335Y021336D02*
X013759Y021336D01*
X013857Y021435D02*
X029335Y021435D01*
X029335Y021533D02*
X013956Y021533D01*
X014054Y021632D02*
X029335Y021632D01*
X029335Y021730D02*
X025470Y021730D01*
X025443Y021719D02*
X025641Y021801D01*
X025793Y021953D01*
X025875Y022151D01*
X025875Y022366D01*
X025793Y022565D01*
X025641Y022717D01*
X025513Y022770D01*
X025535Y022777D01*
X025608Y022814D01*
X027795Y022814D01*
X027795Y022866D02*
X027795Y022651D01*
X027877Y022453D01*
X028029Y022301D01*
X028228Y022219D01*
X028443Y022219D01*
X028641Y022301D01*
X028793Y022453D01*
X028875Y022651D01*
X028875Y022866D01*
X028793Y023065D01*
X028641Y023217D01*
X028539Y023259D01*
X028641Y023301D01*
X028793Y023453D01*
X028875Y023651D01*
X028875Y023866D01*
X028793Y024065D01*
X028641Y024217D01*
X028539Y024259D01*
X028641Y024301D01*
X028793Y024453D01*
X028875Y024651D01*
X028875Y024866D01*
X028793Y025065D01*
X028641Y025217D01*
X028539Y025259D01*
X028641Y025301D01*
X028793Y025453D01*
X028875Y025651D01*
X028875Y025866D01*
X028793Y026065D01*
X028641Y026217D01*
X028539Y026259D01*
X028641Y026301D01*
X028793Y026453D01*
X028875Y026651D01*
X028875Y026866D01*
X028793Y027065D01*
X028641Y027217D01*
X028539Y027259D01*
X028641Y027301D01*
X028793Y027453D01*
X028875Y027651D01*
X028875Y027866D01*
X028793Y028065D01*
X028641Y028217D01*
X028443Y028299D01*
X028228Y028299D01*
X028029Y028217D01*
X027877Y028065D01*
X027795Y027866D01*
X027795Y027651D01*
X027877Y027453D01*
X028029Y027301D01*
X028131Y027259D01*
X028029Y027217D01*
X027877Y027065D01*
X027795Y026866D01*
X027795Y026651D01*
X027877Y026453D01*
X028029Y026301D01*
X028131Y026259D01*
X028029Y026217D01*
X027877Y026065D01*
X027795Y025866D01*
X027795Y025651D01*
X027877Y025453D01*
X028029Y025301D01*
X028131Y025259D01*
X028029Y025217D01*
X027877Y025065D01*
X027795Y024866D01*
X027795Y024651D01*
X027877Y024453D01*
X028029Y024301D01*
X028131Y024259D01*
X028029Y024217D01*
X027877Y024065D01*
X027795Y023866D01*
X027795Y023651D01*
X027877Y023453D01*
X028029Y023301D01*
X028131Y023259D01*
X028029Y023217D01*
X027877Y023065D01*
X027795Y022866D01*
X027814Y022913D02*
X025724Y022913D01*
X025732Y022920D02*
X025780Y022986D01*
X025817Y023059D01*
X025842Y023137D01*
X025854Y023209D01*
X025385Y023209D01*
X025385Y023309D01*
X025854Y023309D01*
X025842Y023381D01*
X025817Y023459D01*
X025780Y023531D01*
X025732Y023598D01*
X025674Y023656D01*
X025608Y023704D01*
X025535Y023741D01*
X025513Y023748D01*
X025641Y023801D01*
X025793Y023953D01*
X025875Y024151D01*
X025875Y024366D01*
X025793Y024565D01*
X025641Y024717D01*
X025636Y024719D01*
X025776Y024719D01*
X025875Y024818D01*
X025875Y025699D01*
X025776Y025799D01*
X024895Y025799D01*
X024795Y025699D01*
X024795Y024818D01*
X024895Y024719D01*
X025035Y024719D01*
X025029Y024717D01*
X024877Y024565D01*
X024795Y024366D01*
X024795Y024151D01*
X024877Y023953D01*
X025029Y023801D01*
X025158Y023748D01*
X025135Y023741D01*
X025063Y023704D01*
X024996Y023656D01*
X024938Y023598D01*
X024890Y023531D01*
X024853Y023459D01*
X024828Y023381D01*
X024817Y023309D01*
X025285Y023309D01*
X025285Y023209D01*
X024817Y023209D01*
X024828Y023137D01*
X024853Y023059D01*
X024890Y022986D01*
X024938Y022920D01*
X024996Y022862D01*
X025063Y022814D01*
X025135Y022777D01*
X025158Y022770D01*
X025029Y022717D01*
X024877Y022565D01*
X024795Y022366D01*
X024795Y022151D01*
X024877Y021953D01*
X025029Y021801D01*
X025228Y021719D01*
X025443Y021719D01*
X025200Y021730D02*
X014153Y021730D01*
X014251Y021829D02*
X025002Y021829D01*
X024903Y021927D02*
X014350Y021927D01*
X014449Y022026D02*
X024847Y022026D01*
X024806Y022124D02*
X014547Y022124D01*
X014646Y022223D02*
X024795Y022223D01*
X024795Y022321D02*
X014744Y022321D01*
X014843Y022420D02*
X022586Y022420D01*
X022526Y022445D02*
X022661Y022389D01*
X022809Y022389D01*
X022945Y022445D01*
X023048Y022549D01*
X023772Y022549D01*
X023876Y022445D01*
X024011Y022389D01*
X024159Y022389D01*
X024295Y022445D01*
X024399Y022549D01*
X024455Y022685D01*
X024455Y022832D01*
X024399Y022968D01*
X024295Y023073D01*
X024159Y023129D01*
X024011Y023129D01*
X023876Y023073D01*
X023772Y022969D01*
X023048Y022969D01*
X022945Y023073D01*
X022809Y023129D01*
X022661Y023129D01*
X022526Y023073D01*
X022421Y022968D01*
X022365Y022832D01*
X022365Y022685D01*
X022421Y022549D01*
X022526Y022445D01*
X022452Y022519D02*
X014941Y022519D01*
X015040Y022617D02*
X022393Y022617D01*
X022365Y022716D02*
X015138Y022716D01*
X014741Y023011D02*
X012741Y023011D01*
X012782Y022913D02*
X014642Y022913D01*
X014544Y022814D02*
X012783Y022814D01*
X012775Y022716D02*
X014445Y022716D01*
X014347Y022617D02*
X012735Y022617D01*
X012665Y022519D02*
X014248Y022519D01*
X014150Y022420D02*
X012574Y022420D01*
X012681Y022321D02*
X014051Y022321D01*
X013953Y022223D02*
X012741Y022223D01*
X012782Y022124D02*
X013854Y022124D01*
X013756Y022026D02*
X012783Y022026D01*
X012775Y021927D02*
X013657Y021927D01*
X013559Y021829D02*
X012734Y021829D01*
X012664Y021730D02*
X013460Y021730D01*
X013361Y021632D02*
X012576Y021632D01*
X012682Y021533D02*
X013263Y021533D01*
X012967Y021237D02*
X012783Y021237D01*
X012775Y021139D02*
X012869Y021139D01*
X012770Y021040D02*
X012734Y021040D01*
X012672Y020942D02*
X012663Y020942D01*
X012783Y021336D02*
X012714Y021501D01*
X012116Y021641D02*
X012082Y021626D01*
X011956Y021501D01*
X011888Y021336D01*
X009676Y021336D01*
X009641Y021301D02*
X009793Y021453D01*
X009875Y021651D01*
X009875Y021866D01*
X009793Y022065D01*
X009641Y022217D01*
X009539Y022259D01*
X009641Y022301D01*
X009793Y022453D01*
X009875Y022651D01*
X009875Y022866D01*
X009793Y023065D01*
X009641Y023217D01*
X009539Y023259D01*
X009641Y023301D01*
X009793Y023453D01*
X009875Y023651D01*
X009875Y023866D01*
X009793Y024065D01*
X009641Y024217D01*
X009539Y024259D01*
X009641Y024301D01*
X009689Y024349D01*
X009822Y024349D01*
X011888Y024349D01*
X011888Y024308D01*
X011956Y024143D01*
X012082Y024017D01*
X012116Y024003D01*
X012082Y023989D01*
X011956Y023863D01*
X011888Y023698D01*
X011888Y023520D01*
X011956Y023356D01*
X012082Y023230D01*
X012116Y023216D01*
X012082Y023201D01*
X011956Y023075D01*
X011888Y022911D01*
X011888Y022733D01*
X011956Y022568D01*
X012082Y022443D01*
X012116Y022428D01*
X012082Y022414D01*
X011956Y022288D01*
X011888Y022124D01*
X009733Y022124D01*
X009809Y022026D02*
X011888Y022026D01*
X011888Y021945D02*
X011956Y021781D01*
X012082Y021655D01*
X012116Y021641D01*
X012094Y021632D02*
X009867Y021632D01*
X009875Y021730D02*
X012007Y021730D01*
X011936Y021829D02*
X009875Y021829D01*
X009850Y021927D02*
X011895Y021927D01*
X011888Y021945D02*
X011888Y022124D01*
X011929Y022223D02*
X009626Y022223D01*
X009661Y022321D02*
X011989Y022321D01*
X012097Y022420D02*
X009760Y022420D01*
X009820Y022519D02*
X012006Y022519D01*
X011936Y022617D02*
X009861Y022617D01*
X009875Y022716D02*
X011895Y022716D01*
X011888Y022814D02*
X009875Y022814D01*
X009856Y022913D02*
X011888Y022913D01*
X011929Y023011D02*
X009815Y023011D01*
X009748Y023110D02*
X011990Y023110D01*
X012099Y023208D02*
X009649Y023208D01*
X009647Y023307D02*
X012005Y023307D01*
X011935Y023405D02*
X009745Y023405D01*
X009814Y023504D02*
X011894Y023504D01*
X011888Y023603D02*
X009855Y023603D01*
X009875Y023701D02*
X011889Y023701D01*
X011930Y023800D02*
X009875Y023800D01*
X009862Y023898D02*
X011991Y023898D01*
X012101Y023997D02*
X009821Y023997D01*
X009762Y024095D02*
X012004Y024095D01*
X011935Y024194D02*
X009664Y024194D01*
X009620Y024292D02*
X011894Y024292D01*
X012074Y024769D02*
X009875Y024769D01*
X009875Y024866D01*
X009793Y025065D01*
X009641Y025217D01*
X009539Y025259D01*
X009641Y025301D01*
X009689Y025349D01*
X009822Y025349D01*
X011548Y025349D01*
X011748Y025149D01*
X011888Y025149D01*
X011888Y025095D01*
X011956Y024931D01*
X012082Y024805D01*
X012116Y024790D01*
X012082Y024776D01*
X012074Y024769D01*
X012103Y024785D02*
X009875Y024785D01*
X009868Y024884D02*
X012003Y024884D01*
X011934Y024982D02*
X009827Y024982D01*
X009777Y025081D02*
X011894Y025081D01*
X011718Y025179D02*
X009678Y025179D01*
X009585Y025278D02*
X011619Y025278D01*
X011918Y025573D02*
X012106Y025573D01*
X012002Y025672D02*
X011819Y025672D01*
X011934Y025770D02*
X009875Y025770D01*
X009874Y025869D02*
X011893Y025869D01*
X011888Y025968D02*
X009833Y025968D01*
X009792Y026066D02*
X011890Y026066D01*
X011931Y026165D02*
X009693Y026165D01*
X009549Y026263D02*
X011994Y026263D01*
X011965Y026362D02*
X009702Y026362D01*
X009796Y026460D02*
X011908Y026460D01*
X011908Y026559D02*
X009837Y026559D01*
X009875Y026657D02*
X010048Y026657D01*
X010067Y027347D02*
X009687Y027347D01*
X009786Y027446D02*
X010029Y027446D01*
X010029Y027544D02*
X009831Y027544D01*
X009871Y027643D02*
X010029Y027643D01*
X010029Y027741D02*
X009875Y027741D01*
X009875Y027840D02*
X010029Y027840D01*
X010126Y027938D02*
X009845Y027938D01*
X009924Y028037D02*
X011316Y028037D01*
X011415Y028136D02*
X010023Y028136D01*
X010121Y028234D02*
X011513Y028234D01*
X011713Y027840D02*
X014812Y027840D01*
X014889Y027741D02*
X011641Y027741D01*
X011641Y027643D02*
X014999Y027643D01*
X015571Y027643D02*
X015999Y027643D01*
X015889Y027741D02*
X015681Y027741D01*
X015758Y027840D02*
X015812Y027840D01*
X016285Y028109D02*
X016285Y028309D01*
X015835Y028759D01*
X014185Y028759D01*
X013885Y028459D01*
X010035Y028459D01*
X009335Y027759D01*
X008839Y027544D02*
X008335Y027544D01*
X008335Y027446D02*
X008885Y027446D01*
X008983Y027347D02*
X008335Y027347D01*
X008335Y027249D02*
X009106Y027249D01*
X008963Y027150D02*
X008335Y027150D01*
X008335Y027052D02*
X008872Y027052D01*
X008831Y026953D02*
X008335Y026953D01*
X008335Y026854D02*
X008795Y026854D01*
X008795Y026756D02*
X008335Y026756D01*
X008335Y026657D02*
X008795Y026657D01*
X008833Y026559D02*
X008335Y026559D01*
X008335Y026460D02*
X008874Y026460D01*
X008969Y026362D02*
X008335Y026362D01*
X008335Y026263D02*
X009121Y026263D01*
X008977Y026165D02*
X008335Y026165D01*
X008335Y026066D02*
X008879Y026066D01*
X008837Y025968D02*
X008335Y025968D01*
X008335Y025869D02*
X008796Y025869D01*
X008795Y025770D02*
X008335Y025770D01*
X008335Y025672D02*
X008795Y025672D01*
X008827Y025573D02*
X008335Y025573D01*
X008335Y025475D02*
X008868Y025475D01*
X008954Y025376D02*
X008335Y025376D01*
X008335Y025278D02*
X009086Y025278D01*
X008992Y025179D02*
X008335Y025179D01*
X008335Y025081D02*
X008893Y025081D01*
X008843Y024982D02*
X008335Y024982D01*
X008335Y024884D02*
X008802Y024884D01*
X008795Y024785D02*
X008335Y024785D01*
X008335Y024686D02*
X008795Y024686D01*
X008821Y024588D02*
X008335Y024588D01*
X008335Y024489D02*
X008862Y024489D01*
X008939Y024391D02*
X008335Y024391D01*
X008335Y024292D02*
X009050Y024292D01*
X009006Y024194D02*
X008335Y024194D01*
X008335Y024095D02*
X008908Y024095D01*
X008849Y023997D02*
X008335Y023997D01*
X008335Y023898D02*
X008808Y023898D01*
X008795Y023800D02*
X008335Y023800D01*
X008335Y023701D02*
X008795Y023701D01*
X008815Y023603D02*
X008335Y023603D01*
X008335Y023504D02*
X008856Y023504D01*
X008925Y023405D02*
X008335Y023405D01*
X008335Y023307D02*
X009023Y023307D01*
X009021Y023208D02*
X008335Y023208D01*
X008335Y023110D02*
X008922Y023110D01*
X008855Y023011D02*
X008335Y023011D01*
X008335Y022913D02*
X008814Y022913D01*
X008795Y022814D02*
X008335Y022814D01*
X008335Y022716D02*
X008795Y022716D01*
X008809Y022617D02*
X008335Y022617D01*
X008335Y022519D02*
X008850Y022519D01*
X008910Y022420D02*
X008335Y022420D01*
X008335Y022321D02*
X009009Y022321D01*
X009044Y022223D02*
X008335Y022223D01*
X008335Y022124D02*
X008937Y022124D01*
X008861Y022026D02*
X008335Y022026D01*
X008335Y021927D02*
X008820Y021927D01*
X008795Y021829D02*
X008335Y021829D01*
X008335Y021730D02*
X008795Y021730D01*
X008803Y021632D02*
X008335Y021632D01*
X008335Y021533D02*
X008844Y021533D01*
X008896Y021435D02*
X008335Y021435D01*
X008335Y021336D02*
X008994Y021336D01*
X009079Y021237D02*
X008335Y021237D01*
X008335Y021139D02*
X008951Y021139D01*
X008867Y021040D02*
X008335Y021040D01*
X008335Y020942D02*
X008826Y020942D01*
X008795Y020843D02*
X008335Y020843D01*
X008335Y020745D02*
X008795Y020745D01*
X008797Y020646D02*
X008335Y020646D01*
X008335Y020548D02*
X008838Y020548D01*
X008881Y020449D02*
X008335Y020449D01*
X008335Y020351D02*
X008980Y020351D01*
X009148Y020252D02*
X008335Y020252D01*
X008335Y020154D02*
X012008Y020154D01*
X011937Y020252D02*
X009523Y020252D01*
X009690Y020351D02*
X011896Y020351D01*
X011888Y020449D02*
X009789Y020449D01*
X009832Y020548D02*
X011888Y020548D01*
X011928Y020646D02*
X009873Y020646D01*
X009875Y020745D02*
X011987Y020745D01*
X012092Y020843D02*
X009875Y020843D01*
X009722Y021269D02*
X009563Y021269D01*
X009641Y021301D01*
X009722Y021269D02*
X011888Y021269D01*
X011888Y021336D01*
X011928Y021435D02*
X009774Y021435D01*
X009826Y021533D02*
X011988Y021533D01*
X012143Y020055D02*
X008335Y020055D01*
X008335Y019956D02*
X012015Y019956D01*
X015654Y022814D02*
X017062Y022814D01*
X017063Y022814D02*
X017135Y022777D01*
X017213Y022752D01*
X017287Y022740D01*
X017287Y023210D01*
X017384Y023210D01*
X017384Y023307D01*
X025285Y023307D01*
X025385Y023307D02*
X028023Y023307D01*
X028021Y023208D02*
X025854Y023208D01*
X025833Y023110D02*
X027922Y023110D01*
X027855Y023011D02*
X025793Y023011D01*
X025732Y022920D02*
X025674Y022862D01*
X025608Y022814D01*
X025642Y022716D02*
X027795Y022716D01*
X027809Y022617D02*
X025741Y022617D01*
X025812Y022519D02*
X027850Y022519D01*
X027910Y022420D02*
X025853Y022420D01*
X025875Y022321D02*
X028009Y022321D01*
X028218Y022223D02*
X025875Y022223D01*
X025864Y022124D02*
X029335Y022124D01*
X029335Y022026D02*
X025823Y022026D01*
X025767Y021927D02*
X029335Y021927D01*
X029335Y021829D02*
X025669Y021829D01*
X024817Y022420D02*
X024234Y022420D01*
X024368Y022519D02*
X024858Y022519D01*
X024930Y022617D02*
X024427Y022617D01*
X024455Y022716D02*
X025028Y022716D01*
X025062Y022814D02*
X024455Y022814D01*
X024422Y022913D02*
X024946Y022913D01*
X024878Y023011D02*
X024356Y023011D01*
X024205Y023110D02*
X024837Y023110D01*
X024817Y023208D02*
X017854Y023208D01*
X017854Y023210D02*
X017384Y023210D01*
X017384Y022740D01*
X017457Y022752D01*
X017535Y022777D01*
X017608Y022814D01*
X022365Y022814D01*
X022398Y022913D02*
X017724Y022913D01*
X017732Y022920D02*
X017780Y022986D01*
X017817Y023059D01*
X017842Y023137D01*
X017854Y023210D01*
X017854Y023307D02*
X017842Y023381D01*
X017817Y023459D01*
X017780Y023531D01*
X017732Y023598D01*
X017674Y023656D01*
X017608Y023704D01*
X017535Y023741D01*
X017457Y023766D01*
X017384Y023778D01*
X017384Y023308D01*
X017287Y023308D01*
X017287Y023778D01*
X017213Y023766D01*
X017135Y023741D01*
X017063Y023704D01*
X016996Y023656D01*
X016938Y023598D01*
X016890Y023531D01*
X016853Y023459D01*
X016828Y023381D01*
X016816Y023307D01*
X017286Y023307D01*
X015875Y023307D01*
X015875Y023208D02*
X016817Y023208D01*
X016816Y023210D02*
X016828Y023137D01*
X016853Y023059D01*
X016890Y022986D01*
X016938Y022920D01*
X016996Y022862D01*
X017063Y022814D01*
X016946Y022913D02*
X015753Y022913D01*
X015817Y023011D02*
X016878Y023011D01*
X016837Y023110D02*
X015858Y023110D01*
X015859Y023405D02*
X016836Y023405D01*
X016876Y023504D02*
X015818Y023504D01*
X015755Y023603D02*
X016943Y023603D01*
X017059Y023701D02*
X015657Y023701D01*
X015014Y023701D02*
X012781Y023701D01*
X012783Y023603D02*
X014915Y023603D01*
X014852Y023504D02*
X012776Y023504D01*
X012735Y023405D02*
X014811Y023405D01*
X014795Y023307D02*
X012666Y023307D01*
X012571Y023208D02*
X014795Y023208D01*
X014812Y023110D02*
X012680Y023110D01*
X012741Y023800D02*
X025033Y023800D01*
X025059Y023701D02*
X017611Y023701D01*
X017727Y023603D02*
X024943Y023603D01*
X024876Y023504D02*
X017794Y023504D01*
X017834Y023405D02*
X024836Y023405D01*
X024932Y023898D02*
X012679Y023898D01*
X012569Y023997D02*
X024859Y023997D01*
X024818Y024095D02*
X012666Y024095D01*
X012735Y024194D02*
X024795Y024194D01*
X024795Y024292D02*
X012776Y024292D01*
X012783Y024391D02*
X024805Y024391D01*
X024846Y024489D02*
X012781Y024489D01*
X012740Y024588D02*
X024901Y024588D01*
X024999Y024686D02*
X012678Y024686D01*
X012567Y024785D02*
X016068Y024785D01*
X015947Y024884D02*
X012667Y024884D01*
X012736Y024982D02*
X015865Y024982D01*
X015824Y025081D02*
X012777Y025081D01*
X012783Y025179D02*
X015795Y025179D01*
X015984Y025672D02*
X013119Y025672D01*
X013020Y025770D02*
X016159Y025770D01*
X016511Y025770D02*
X024866Y025770D01*
X024795Y025672D02*
X016686Y025672D01*
X016784Y025573D02*
X024795Y025573D01*
X024795Y025475D02*
X016830Y025475D01*
X016871Y025376D02*
X024795Y025376D01*
X024795Y025278D02*
X016875Y025278D01*
X016875Y025179D02*
X024795Y025179D01*
X024795Y025081D02*
X016846Y025081D01*
X016805Y024982D02*
X024795Y024982D01*
X024795Y024884D02*
X016723Y024884D01*
X016602Y024785D02*
X024829Y024785D01*
X025671Y024686D02*
X027795Y024686D01*
X027795Y024785D02*
X025842Y024785D01*
X025875Y024884D02*
X027802Y024884D01*
X027843Y024982D02*
X025875Y024982D01*
X025875Y025081D02*
X027893Y025081D01*
X027992Y025179D02*
X025875Y025179D01*
X025875Y025278D02*
X028086Y025278D01*
X027954Y025376D02*
X025875Y025376D01*
X025875Y025475D02*
X027868Y025475D01*
X027827Y025573D02*
X025875Y025573D01*
X025875Y025672D02*
X027795Y025672D01*
X027795Y025770D02*
X025804Y025770D01*
X025770Y024588D02*
X027821Y024588D01*
X027862Y024489D02*
X025824Y024489D01*
X025865Y024391D02*
X027939Y024391D01*
X028050Y024292D02*
X025875Y024292D01*
X025875Y024194D02*
X028006Y024194D01*
X027908Y024095D02*
X025852Y024095D01*
X025811Y023997D02*
X027849Y023997D01*
X027808Y023898D02*
X025738Y023898D01*
X025637Y023800D02*
X027795Y023800D01*
X027795Y023701D02*
X025611Y023701D01*
X025727Y023603D02*
X027815Y023603D01*
X027856Y023504D02*
X025794Y023504D01*
X025834Y023405D02*
X027925Y023405D01*
X028647Y023307D02*
X029335Y023307D01*
X029335Y023405D02*
X028745Y023405D01*
X028814Y023504D02*
X029335Y023504D01*
X029335Y023603D02*
X028855Y023603D01*
X028875Y023701D02*
X029335Y023701D01*
X029335Y023800D02*
X028875Y023800D01*
X028862Y023898D02*
X029335Y023898D01*
X029335Y023997D02*
X028821Y023997D01*
X028762Y024095D02*
X029335Y024095D01*
X029335Y024194D02*
X028664Y024194D01*
X028620Y024292D02*
X029335Y024292D01*
X029335Y024391D02*
X028731Y024391D01*
X028808Y024489D02*
X029335Y024489D01*
X029335Y024588D02*
X028849Y024588D01*
X028875Y024686D02*
X029335Y024686D01*
X029335Y024785D02*
X028875Y024785D01*
X028868Y024884D02*
X029335Y024884D01*
X029335Y024982D02*
X028827Y024982D01*
X028777Y025081D02*
X029335Y025081D01*
X029335Y025179D02*
X028678Y025179D01*
X028585Y025278D02*
X029335Y025278D01*
X029335Y025376D02*
X028716Y025376D01*
X028802Y025475D02*
X029335Y025475D01*
X029335Y025573D02*
X028843Y025573D01*
X028875Y025672D02*
X029335Y025672D01*
X029335Y025770D02*
X028875Y025770D01*
X028874Y025869D02*
X029335Y025869D01*
X029335Y025968D02*
X028833Y025968D01*
X028792Y026066D02*
X029335Y026066D01*
X029335Y026165D02*
X028693Y026165D01*
X028549Y026263D02*
X029335Y026263D01*
X029335Y026362D02*
X028702Y026362D01*
X028796Y026460D02*
X029335Y026460D01*
X029335Y026559D02*
X028837Y026559D01*
X028875Y026657D02*
X029335Y026657D01*
X029335Y026756D02*
X028875Y026756D01*
X028875Y026854D02*
X029335Y026854D01*
X029335Y026953D02*
X028839Y026953D01*
X028798Y027052D02*
X029335Y027052D01*
X029335Y027150D02*
X028708Y027150D01*
X028564Y027249D02*
X029335Y027249D01*
X029335Y027347D02*
X028687Y027347D01*
X028786Y027446D02*
X029335Y027446D01*
X029335Y027544D02*
X028831Y027544D01*
X028871Y027643D02*
X029335Y027643D01*
X029335Y027741D02*
X028875Y027741D01*
X028875Y027840D02*
X029335Y027840D01*
X029335Y027938D02*
X028845Y027938D01*
X028804Y028037D02*
X029335Y028037D01*
X029335Y028136D02*
X028722Y028136D01*
X028599Y028234D02*
X029335Y028234D01*
X029335Y028333D02*
X027165Y028333D01*
X027208Y028397D02*
X027208Y028397D01*
X027003Y028091D01*
X027003Y028091D01*
X027003Y028091D01*
X026697Y027886D01*
X026697Y027886D01*
X026335Y027814D01*
X026335Y027814D01*
X025974Y027886D01*
X025973Y027886D01*
X025667Y028091D01*
X025667Y028091D01*
X025462Y028397D01*
X025462Y028397D01*
X025390Y028759D01*
X025390Y028759D01*
X025462Y029120D01*
X025462Y029121D01*
X013697Y029121D01*
X013599Y029022D02*
X025443Y029022D01*
X025423Y028924D02*
X015981Y028924D01*
X016080Y028825D02*
X025403Y028825D01*
X025396Y028727D02*
X023632Y028727D01*
X023605Y028741D02*
X023527Y028766D01*
X023455Y028777D01*
X023455Y028309D01*
X023355Y028309D01*
X023355Y028777D01*
X023283Y028766D01*
X023205Y028741D01*
X023133Y028704D01*
X023066Y028656D01*
X023008Y028598D01*
X022960Y028531D01*
X022923Y028459D01*
X022898Y028381D01*
X022887Y028309D01*
X023355Y028309D01*
X023355Y028209D01*
X022887Y028209D01*
X022898Y028137D01*
X022923Y028059D01*
X022960Y027986D01*
X023008Y027920D01*
X023066Y027862D01*
X023133Y027814D01*
X023205Y027777D01*
X023283Y027752D01*
X023355Y027740D01*
X023355Y028209D01*
X023455Y028209D01*
X023455Y028309D01*
X023924Y028309D01*
X023912Y028381D01*
X023887Y028459D01*
X023850Y028531D01*
X023802Y028598D01*
X023744Y028656D01*
X023678Y028704D01*
X023605Y028741D01*
X023455Y028727D02*
X023355Y028727D01*
X023355Y028628D02*
X023455Y028628D01*
X023455Y028530D02*
X023355Y028530D01*
X023355Y028431D02*
X023455Y028431D01*
X023455Y028333D02*
X023355Y028333D01*
X023355Y028234D02*
X022805Y028234D01*
X022805Y028151D02*
X022723Y027953D01*
X022571Y027801D01*
X022373Y027719D01*
X022158Y027719D01*
X021959Y027801D01*
X021807Y027953D01*
X021725Y028151D01*
X021725Y028366D01*
X021807Y028565D01*
X021959Y028717D01*
X022158Y028799D01*
X022373Y028799D01*
X022571Y028717D01*
X022723Y028565D01*
X022805Y028366D01*
X022805Y028151D01*
X022798Y028136D02*
X022898Y028136D01*
X022935Y028037D02*
X022758Y028037D01*
X022708Y027938D02*
X022995Y027938D01*
X023097Y027840D02*
X022610Y027840D01*
X022427Y027741D02*
X023349Y027741D01*
X023355Y027741D02*
X023455Y027741D01*
X023455Y027740D02*
X023527Y027752D01*
X023605Y027777D01*
X023678Y027814D01*
X023744Y027862D01*
X023802Y027920D01*
X023850Y027986D01*
X023887Y028059D01*
X023912Y028137D01*
X023924Y028209D01*
X023455Y028209D01*
X023455Y027740D01*
X023461Y027741D02*
X027795Y027741D01*
X027799Y027643D02*
X017516Y027643D01*
X017485Y027627D02*
X017558Y027664D01*
X017624Y027712D01*
X017682Y027770D01*
X017730Y027836D01*
X017767Y027909D01*
X017792Y027987D01*
X017804Y028059D01*
X017335Y028059D01*
X017335Y027590D01*
X017407Y027602D01*
X017485Y027627D01*
X017335Y027643D02*
X017235Y027643D01*
X017235Y027741D02*
X017335Y027741D01*
X017335Y027840D02*
X017235Y027840D01*
X017235Y027938D02*
X017335Y027938D01*
X017335Y028037D02*
X017235Y028037D01*
X017335Y028136D02*
X021732Y028136D01*
X021725Y028234D02*
X017791Y028234D01*
X017792Y028231D02*
X017767Y028309D01*
X017730Y028381D01*
X017682Y028448D01*
X017624Y028506D01*
X017558Y028554D01*
X017485Y028591D01*
X017407Y028616D01*
X017335Y028627D01*
X017335Y028159D01*
X017804Y028159D01*
X017792Y028231D01*
X017755Y028333D02*
X021725Y028333D01*
X021752Y028431D02*
X017694Y028431D01*
X017591Y028530D02*
X021793Y028530D01*
X021871Y028628D02*
X016442Y028628D01*
X016628Y028530D02*
X016980Y028530D01*
X016876Y028431D02*
X016726Y028431D01*
X016777Y028333D02*
X016816Y028333D01*
X017235Y028333D02*
X017335Y028333D01*
X017335Y028431D02*
X017235Y028431D01*
X017235Y028530D02*
X017335Y028530D01*
X017335Y028234D02*
X017235Y028234D01*
X016839Y027840D02*
X016758Y027840D01*
X016681Y027741D02*
X016917Y027741D01*
X017054Y027643D02*
X016571Y027643D01*
X017653Y027741D02*
X022103Y027741D01*
X021920Y027840D02*
X017732Y027840D01*
X017776Y027938D02*
X021822Y027938D01*
X021773Y028037D02*
X017800Y028037D01*
X016178Y028727D02*
X021984Y028727D01*
X022547Y028727D02*
X023178Y028727D01*
X023039Y028628D02*
X022659Y028628D01*
X022737Y028530D02*
X022959Y028530D01*
X022914Y028431D02*
X022778Y028431D01*
X022805Y028333D02*
X022890Y028333D01*
X023355Y028136D02*
X023455Y028136D01*
X023455Y028234D02*
X025571Y028234D01*
X025505Y028333D02*
X023920Y028333D01*
X023896Y028431D02*
X025455Y028431D01*
X025436Y028530D02*
X023851Y028530D01*
X023771Y028628D02*
X025416Y028628D01*
X025637Y028136D02*
X023912Y028136D01*
X023876Y028037D02*
X025747Y028037D01*
X025667Y028091D02*
X025667Y028091D01*
X025895Y027938D02*
X023815Y027938D01*
X023713Y027840D02*
X026204Y027840D01*
X026466Y027840D02*
X027795Y027840D01*
X027825Y027938D02*
X026775Y027938D01*
X026923Y028037D02*
X027866Y028037D01*
X027948Y028136D02*
X027033Y028136D01*
X027099Y028234D02*
X028071Y028234D01*
X028269Y028825D02*
X027267Y028825D01*
X027280Y028759D02*
X027208Y029120D01*
X027208Y029121D01*
X027973Y029121D01*
X027875Y029219D02*
X027142Y029219D01*
X027208Y029121D02*
X027003Y029427D01*
X026697Y029632D01*
X026335Y029704D01*
X025974Y029632D01*
X025667Y029427D01*
X025667Y029427D01*
X025462Y029121D01*
X025528Y029219D02*
X013796Y029219D01*
X013894Y029318D02*
X025594Y029318D01*
X025660Y029417D02*
X013993Y029417D01*
X014091Y029515D02*
X025799Y029515D01*
X025667Y029427D02*
X025667Y029427D01*
X025946Y029614D02*
X014190Y029614D01*
X014288Y029712D02*
X027382Y029712D01*
X027480Y029614D02*
X026724Y029614D01*
X026872Y029515D02*
X027579Y029515D01*
X027677Y029417D02*
X027010Y029417D01*
X027003Y029427D02*
X027003Y029427D01*
X027076Y029318D02*
X027776Y029318D01*
X028072Y029022D02*
X027228Y029022D01*
X027247Y028924D02*
X028170Y028924D01*
X027280Y028759D02*
X027208Y028397D01*
X027215Y028431D02*
X029335Y028431D01*
X029335Y028530D02*
X027234Y028530D01*
X027254Y028628D02*
X029335Y028628D01*
X029335Y028727D02*
X027274Y028727D01*
X027280Y028759D02*
X027280Y028759D01*
X027839Y027544D02*
X011641Y027544D01*
X011641Y027446D02*
X027885Y027446D01*
X027983Y027347D02*
X011603Y027347D01*
X011529Y027202D02*
X011491Y027212D01*
X011264Y027212D01*
X011264Y026934D01*
X011206Y026934D01*
X011206Y027212D01*
X010979Y027212D01*
X010941Y027202D01*
X010907Y027182D01*
X010879Y027154D01*
X010859Y027120D01*
X010849Y027082D01*
X010849Y026933D01*
X011206Y026933D01*
X011206Y026876D01*
X010849Y026876D01*
X010849Y026727D01*
X010859Y026689D01*
X010879Y026655D01*
X010907Y026627D01*
X010941Y026607D01*
X010979Y026597D01*
X011206Y026597D01*
X011206Y026876D01*
X011264Y026876D01*
X011264Y026933D01*
X011621Y026933D01*
X011621Y027082D01*
X011611Y027120D01*
X011591Y027154D01*
X011563Y027182D01*
X011529Y027202D01*
X011594Y027150D02*
X011959Y027150D01*
X011908Y027052D02*
X011621Y027052D01*
X011621Y026953D02*
X011908Y026953D01*
X011908Y026854D02*
X011621Y026854D01*
X011621Y026876D02*
X011264Y026876D01*
X011264Y026597D01*
X011491Y026597D01*
X011529Y026607D01*
X011563Y026627D01*
X011591Y026655D01*
X011611Y026689D01*
X011621Y026727D01*
X011621Y026876D01*
X011621Y026756D02*
X012306Y026756D01*
X012364Y026756D02*
X027795Y026756D01*
X027795Y026854D02*
X012763Y026854D01*
X012763Y026788D02*
X012763Y027056D01*
X012752Y027094D01*
X012733Y027128D01*
X012705Y027156D01*
X012670Y027176D01*
X012632Y027186D01*
X012364Y027186D01*
X012364Y026788D01*
X012763Y026788D01*
X012763Y026657D02*
X027795Y026657D01*
X027833Y026559D02*
X012763Y026559D01*
X012762Y026460D02*
X027874Y026460D01*
X027969Y026362D02*
X012705Y026362D01*
X012676Y026263D02*
X028121Y026263D01*
X027977Y026165D02*
X012739Y026165D01*
X012780Y026066D02*
X027879Y026066D01*
X027837Y025968D02*
X012823Y025968D01*
X012922Y025869D02*
X027796Y025869D01*
X027831Y026953D02*
X012763Y026953D01*
X012763Y027052D02*
X027872Y027052D01*
X027963Y027150D02*
X012711Y027150D01*
X012364Y027150D02*
X012306Y027150D01*
X012306Y027052D02*
X012364Y027052D01*
X012364Y026953D02*
X012306Y026953D01*
X012306Y026854D02*
X012364Y026854D01*
X011908Y026657D02*
X011593Y026657D01*
X011264Y026657D02*
X011206Y026657D01*
X011206Y026756D02*
X011264Y026756D01*
X011264Y026854D02*
X011206Y026854D01*
X011206Y026953D02*
X011264Y026953D01*
X011264Y027052D02*
X011206Y027052D01*
X011206Y027150D02*
X011264Y027150D01*
X010877Y027150D02*
X010824Y027150D01*
X010841Y027052D02*
X010849Y027052D01*
X010841Y026953D02*
X010849Y026953D01*
X010841Y026854D02*
X010849Y026854D01*
X010841Y026756D02*
X010849Y026756D01*
X010822Y026657D02*
X010877Y026657D01*
X010867Y027347D02*
X010803Y027347D01*
X010744Y027938D02*
X010926Y027938D01*
X009893Y028628D02*
X008704Y028628D01*
X008606Y028530D02*
X009795Y028530D01*
X009696Y028431D02*
X008507Y028431D01*
X008409Y028333D02*
X009598Y028333D01*
X009071Y028234D02*
X008335Y028234D01*
X008335Y028136D02*
X008948Y028136D01*
X008866Y028037D02*
X008335Y028037D01*
X008335Y027938D02*
X008825Y027938D01*
X008795Y027840D02*
X008335Y027840D01*
X008335Y027741D02*
X008795Y027741D01*
X008799Y027643D02*
X008335Y027643D01*
X009564Y027249D02*
X028106Y027249D01*
X023455Y027840D02*
X023355Y027840D01*
X023355Y027938D02*
X023455Y027938D01*
X023455Y028037D02*
X023355Y028037D01*
X017384Y023701D02*
X017287Y023701D01*
X017287Y023603D02*
X017384Y023603D01*
X017384Y023504D02*
X017287Y023504D01*
X017287Y023405D02*
X017384Y023405D01*
X017384Y023307D02*
X017854Y023307D01*
X017833Y023110D02*
X022616Y023110D01*
X022464Y023011D02*
X017793Y023011D01*
X017732Y022920D02*
X017674Y022862D01*
X017608Y022814D01*
X017384Y022814D02*
X017287Y022814D01*
X017287Y022913D02*
X017384Y022913D01*
X017384Y023011D02*
X017287Y023011D01*
X017287Y023110D02*
X017384Y023110D01*
X017384Y023208D02*
X017287Y023208D01*
X017286Y023210D02*
X016816Y023210D01*
X017286Y023210D02*
X017286Y023307D01*
X012919Y025278D02*
X012781Y025278D01*
X012821Y025376D02*
X012740Y025376D01*
X012722Y025475D02*
X012677Y025475D01*
X012624Y025573D02*
X012565Y025573D01*
X013402Y028825D02*
X013940Y028825D01*
X013965Y028850D02*
X013965Y028850D01*
X014039Y028924D02*
X013500Y028924D01*
X013842Y028727D02*
X008803Y028727D01*
X022855Y023110D02*
X023966Y023110D01*
X023814Y023011D02*
X023006Y023011D01*
X023018Y022519D02*
X023802Y022519D01*
X023936Y022420D02*
X022884Y022420D01*
X028452Y022223D02*
X029335Y022223D01*
X029335Y022321D02*
X028661Y022321D01*
X028760Y022420D02*
X029335Y022420D01*
X029335Y022519D02*
X028820Y022519D01*
X028861Y022617D02*
X029335Y022617D01*
X029335Y022716D02*
X028875Y022716D01*
X028875Y022814D02*
X029335Y022814D01*
X029335Y022913D02*
X028856Y022913D01*
X028815Y023011D02*
X029335Y023011D01*
X029335Y023110D02*
X028748Y023110D01*
X028649Y023208D02*
X029335Y023208D01*
D18*
X024085Y022759D02*
X022735Y022759D01*
X016335Y025259D02*
X016135Y025259D01*
X015935Y025459D01*
X013035Y025459D01*
X012635Y025859D01*
X012435Y025859D01*
X012335Y025959D01*
X012335Y025971D01*
X011835Y025359D02*
X011635Y025559D01*
X009735Y025559D01*
X009535Y025759D01*
X009335Y025759D01*
X009335Y026759D02*
X009535Y026759D01*
X009735Y026959D01*
X010435Y026959D01*
X010435Y026905D01*
X010435Y027613D02*
X010435Y027659D01*
X011235Y027659D01*
X011235Y027613D01*
X011235Y027659D02*
X011635Y028059D01*
X015235Y028059D01*
X015285Y028109D01*
X012335Y025259D02*
X012335Y025184D01*
X012335Y025259D02*
X012235Y025359D01*
X011835Y025359D01*
X012235Y024559D02*
X009735Y024559D01*
X009535Y024759D01*
X009335Y024759D01*
X012235Y024559D02*
X012335Y024459D01*
X012335Y024397D01*
X012335Y021247D02*
X012335Y021159D01*
X012235Y021059D01*
X009635Y021059D01*
X009335Y020759D01*
X009535Y021259D02*
X009131Y021259D01*
X009535Y021259D02*
X009563Y021269D01*
X012335Y020559D02*
X012335Y020460D01*
X012335Y020559D02*
X012635Y020559D01*
X009435Y015359D02*
X009335Y015259D01*
X009435Y015359D02*
X018165Y015359D01*
X018388Y015138D01*
X018385Y012809D01*
X018235Y011759D02*
X019735Y011759D01*
X020085Y012009D01*
X020985Y012009D01*
X015835Y013059D02*
X015735Y012959D01*
X013835Y012959D01*
X014135Y014459D02*
X009735Y014459D01*
X009535Y014259D01*
X009335Y014259D01*
X010385Y013709D02*
X011235Y013709D01*
X014135Y014459D02*
X014435Y014759D01*
D19*
X012635Y020559D02*
X015335Y023259D01*
M02*
